<?xml version="1.0" encoding="UTF-8"?>
<svg version="1.1" xmlns="http://www.w3.org/2000/svg" width="320" height="320">
<path d="M0 0 C1.19657227 0.00193359 2.39314453 0.00386719 3.62597656 0.00585938 C10.79236395 0.04096005 17.87901453 0.22657281 25.015625 0.90625 C28.28894589 1.16226392 31.53055833 1.15765614 34.8125 1.125 C34.8125 1.785 34.8125 2.445 34.8125 3.125 C35.42996094 3.24617187 36.04742187 3.36734375 36.68359375 3.4921875 C42.4124224 4.62574568 48.11602707 5.83869966 53.8125 7.125 C53.8125 7.785 53.8125 8.445 53.8125 9.125 C55.39449631 9.77410154 56.97815724 10.41914694 58.5625 11.0625 C59.88507813 11.60197266 59.88507813 11.60197266 61.234375 12.15234375 C63.42748357 12.9797438 65.53904401 13.58134748 67.8125 14.125 C69.16227849 14.75770867 70.49602881 15.42562468 71.8125 16.125 C72.4725 16.455 73.1325 16.785 73.8125 17.125 C76.47916667 18.45833333 79.14583333 19.79166667 81.8125 21.125 C82.8025 21.455 83.7925 21.785 84.8125 22.125 C85.8125 23.125 86.8125 24.125 87.8125 25.125 C88.37839844 25.39699219 88.94429687 25.66898438 89.52734375 25.94921875 C92.56647449 27.51294243 95.19052991 29.46845701 97.9375 31.5 C98.99195313 32.27085938 100.04640625 33.04171875 101.1328125 33.8359375 C103.56959534 35.91750418 104.72038776 37.1722521 105.8125 40.125 C106.8025 40.125 107.7925 40.125 108.8125 40.125 C108.8125 40.785 108.8125 41.445 108.8125 42.125 C109.43125 42.33125 110.05 42.5375 110.6875 42.75 C113.65903645 44.67275888 113.94274659 46.79094527 114.8125 50.125 C115.4725 50.125 116.1325 50.125 116.8125 50.125 C118.16823748 51.43554623 119.49862831 52.77248503 120.8125 54.125 C121.534375 54.62 122.25625 55.115 123 55.625 C125.117934 57.37777297 125.44339578 58.44899437 125.8125 61.125 C126.4725 61.125 127.1325 61.125 127.8125 61.125 C128.81812575 63.1362515 129.81937423 65.1401233 130.75 67.1875 C131.72040183 69.18647529 131.72040183 69.18647529 133.375 70.625 C134.8125 72.125 134.8125 72.125 135.25 73.9375 C136.08201564 77.17311639 137.82562149 79.47582865 139.8125 82.125 C140.4725 82.125 141.1325 82.125 141.8125 82.125 C141.93625 83.0325 142.06 83.94 142.1875 84.875 C142.74052286 87.75071885 143.49328293 89.57451366 144.8125 92.125 C144.8125 93.115 144.8125 94.105 144.8125 95.125 C145.8025 95.125 146.7925 95.125 147.8125 95.125 C153.55281891 107.61019362 153.55281891 107.61019362 152.8125 114.125 C153.4725 113.795 154.1325 113.465 154.8125 113.125 C156.5604503 118.36885089 157.00642201 122.59822267 156.8125 128.125 C157.4725 128.125 158.1325 128.125 158.8125 128.125 C160.71054319 137.82491476 161.09729618 147.15478347 161.01831055 157.00439453 C160.99970502 159.41319039 160.9978039 161.82160754 160.99804688 164.23046875 C160.99314265 165.76302419 160.98731918 167.29557703 160.98046875 168.828125 C160.97935593 169.54776428 160.9782431 170.26740356 160.97709656 171.0088501 C160.92866846 176.00883154 160.92866846 176.00883154 159.8125 177.125 C159.60361292 179.12103206 159.44474523 181.12242941 159.3125 183.125 C158.92361111 189.01388889 158.92361111 189.01388889 157.8125 190.125 C157.58725615 192.0878393 157.36495212 194.05144722 157.19140625 196.01953125 C156.77076019 198.35693562 155.88703482 200.0167872 154.8125 202.125 C154.43425546 203.59332429 154.10142473 205.0740217 153.8125 206.5625 C153.11305609 209.92649214 152.23302963 212.97954153 150.8125 216.125 C150.1525 216.125 149.4925 216.125 148.8125 216.125 C148.874375 217.2696875 148.874375 217.2696875 148.9375 218.4375 C148.8125 221.125 148.8125 221.125 146.8125 224.125 C146.503125 225.094375 146.19375 226.06375 145.875 227.0625 C144.60628398 230.71938735 143.34310447 233.35969776 139.8125 235.125 C139.15477572 238.15434491 139.15477572 238.15434491 138.8125 241.125 C137.8225 241.455 136.8325 241.785 135.8125 242.125 C135.10002268 243.7726038 134.43849617 245.44263529 133.8125 247.125 C132.83221384 248.47289347 131.83278865 249.80712715 130.8125 251.125 C130.52375 251.72828125 130.235 252.3315625 129.9375 252.953125 C128.6318217 255.47380949 127.05800346 257.57514917 125.3125 259.8125 C124.7040625 260.60011719 124.095625 261.38773437 123.46875 262.19921875 C121.8125 264.125 121.8125 264.125 119.8125 265.125 C117.76422215 266.94297118 117.76422215 266.94297118 116.9375 269.01953125 C115.58530034 271.55021047 113.99568472 272.96241148 111.8125 274.8125 C111.11125 275.41449219 110.41 276.01648438 109.6875 276.63671875 C107.8125 278.125 107.8125 278.125 105.8125 279.125 C105.296875 279.846875 104.78125 280.56875 104.25 281.3125 C101.50900118 284.47519094 98.67716661 286.35217324 95.171875 288.5859375 C92.96025198 290.02861874 90.89351396 291.56430911 88.8125 293.1875 C78.38275066 301.125 78.38275066 301.125 73.8125 301.125 C73.4825 301.785 73.1525 302.445 72.8125 303.125 C71.8225 303.125 70.8325 303.125 69.8125 303.125 C69.8125 303.785 69.8125 304.445 69.8125 305.125 C68.1494416 305.80061748 66.48155395 306.46433281 64.8125 307.125 C64.14992187 307.38925781 63.48734375 307.65351563 62.8046875 307.92578125 C62.10601562 308.19777344 61.40734375 308.46976562 60.6875 308.75 C59.69363281 309.14058594 59.69363281 309.14058594 58.6796875 309.5390625 C56.8125 310.125 56.8125 310.125 53.8125 310.125 C53.4825 310.785 53.1525 311.445 52.8125 312.125 C41.28873551 316.77494006 29.05882569 318.56382531 16.703125 318.1328125 C13.98316002 317.98972202 13.98316002 317.98972202 12.13037109 318.61401367 C8.71793843 319.3663016 5.31352038 319.28772964 1.8359375 319.29296875 C1.06947906 319.29629715 0.30302063 319.29962555 -0.48666382 319.30305481 C-2.10210573 319.30810583 -3.71755802 319.3104637 -5.33300781 319.31030273 C-7.81071924 319.31249842 -10.28799175 319.33069802 -12.765625 319.34960938 C-14.33593598 319.35254179 -15.90624907 319.3545276 -17.4765625 319.35546875 C-18.21927399 319.36265427 -18.96198547 319.36983978 -19.72720337 319.37724304 C-24.95866265 319.35383735 -24.95866265 319.35383735 -27.1875 317.125 C-29.1576489 317.125 -31.12823172 317.13017355 -33.09765625 317.18359375 C-36.03121578 317.10134442 -38.45867502 316.15588944 -41.1875 315.125 C-42.33025391 314.90070313 -42.33025391 314.90070313 -43.49609375 314.671875 C-51.24271557 313.09781541 -58.52554193 310.36442786 -65.1875 306.125 C-65.1875 305.465 -65.1875 304.805 -65.1875 304.125 C-66.3321875 304.1559375 -66.3321875 304.1559375 -67.5 304.1875 C-70.1875 304.125 -70.1875 304.125 -73.1875 303.125 C-73.1875 302.465 -73.1875 301.805 -73.1875 301.125 C-74.1775 300.91875 -75.1675 300.7125 -76.1875 300.5 C-80.86172183 299.18089445 -84.69448702 296.46377604 -88.1875 293.125 C-88.1875 292.465 -88.1875 291.805 -88.1875 291.125 C-89.156875 290.83625 -90.12625 290.5475 -91.125 290.25 C-94.1875 289.125 -94.1875 289.125 -95.1875 287.125 C-96.83113134 286.40340576 -98.49800386 285.73148579 -100.1875 285.125 C-100.1875 284.465 -100.1875 283.805 -100.1875 283.125 C-100.991875 282.7846875 -100.991875 282.7846875 -101.8125 282.4375 C-108.87897119 278.53234487 -114.83040945 272.08154484 -118.9375 265.1875 C-120.07934215 262.80138011 -120.07934215 262.80138011 -123.1875 262.125 C-124.50390625 260.41796875 -124.50390625 260.41796875 -125.75 258.3125 C-126.16378906 257.62542969 -126.57757813 256.93835938 -127.00390625 256.23046875 C-128.13214428 254.22347107 -129.17850463 252.19413796 -130.1875 250.125 C-130.8475 250.125 -131.5075 250.125 -132.1875 250.125 C-134.93528884 246.54454788 -136.65718862 243.6326467 -137.1875 239.125 C-137.8475 239.125 -138.5075 239.125 -139.1875 239.125 C-141.72059233 234.48296103 -143.65265599 230.47344008 -144.1875 225.125 C-144.8475 225.125 -145.5075 225.125 -146.1875 225.125 C-147.17209071 222.7312703 -148.15028703 220.3352493 -149.125 217.9375 C-149.40279297 217.26396484 -149.68058594 216.59042969 -149.96679688 215.89648438 C-151.41992066 212.3074437 -152.50269511 208.95269891 -153.1875 205.125 C-153.5175 204.795 -153.8475 204.465 -154.1875 204.125 C-155.55496592 199.94216305 -156.1875 196.48658632 -156.1875 192.125 C-156.8465841 190.45532028 -157.51400839 188.78892045 -158.1875 187.125 C-159.04845532 182.22261914 -159.30542202 177.51915942 -159.28515625 172.546875 C-159.2837413 171.85362122 -159.28232635 171.16036743 -159.28086853 170.44610596 C-159.27532595 168.25569116 -159.26279655 166.06538319 -159.25 163.875 C-159.24497647 162.3906265 -159.24041506 160.90625137 -159.23632812 159.421875 C-159.2250268 155.65622068 -159.20636876 151.89062413 -159.1875 148.125 C-159.1875 147.135 -159.1875 146.145 -159.1875 145.125 C-159.08022523 142.64356522 -158.95512811 140.16685202 -158.8125 137.6875 C-158.7815625 137.01912109 -158.750625 136.35074219 -158.71875 135.66210938 C-158.50323718 132.03790204 -158.13841322 129.22584175 -156.1875 126.125 C-155.8575 126.125 -155.5275 126.125 -155.1875 126.125 C-154.8575 121.835 -154.5275 117.545 -154.1875 113.125 C-153.5275 113.125 -152.8675 113.125 -152.1875 113.125 C-152.1875 111.145 -152.1875 109.165 -152.1875 107.125 C-151.5275 107.125 -150.8675 107.125 -150.1875 107.125 C-149.19738557 104.94190366 -148.22044432 102.75432734 -147.25 100.5625 C-146.97220703 99.95341797 -146.69441406 99.34433594 -146.40820312 98.71679688 C-144.56074242 94.50992851 -143.81573653 90.70376894 -143.1875 86.125 C-142.1975 85.135 -142.1975 85.135 -141.1875 84.125 C-139.24951737 81.35239701 -139.24951737 81.35239701 -138.1875 79.125 C-137.548125 78.3825 -136.90875 77.64 -136.25 76.875 C-134.02360049 74.21365197 -134.02360049 74.21365197 -133.125 70.875 C-132.815625 69.9675 -132.50625 69.06 -132.1875 68.125 C-130.7025 67.63 -130.7025 67.63 -129.1875 67.125 C-127.40932775 65.03269359 -125.75496397 62.95175629 -124.125 60.75 C-123.67833984 60.15960938 -123.23167969 59.56921875 -122.77148438 58.9609375 C-119.17528085 54.23773756 -119.17528085 54.23773756 -116.1875 49.125 C-115.1875 48.125 -114.1875 47.125 -113.1875 46.125 C-112.5275 45.135 -111.8675 44.145 -111.1875 43.125 C-110.548125 42.980625 -109.90875 42.83625 -109.25 42.6875 C-106.43065672 41.9185882 -105.74640352 40.53421453 -104.1875 38.125 C-102.1875 35.125 -102.1875 35.125 -100.125 34.625 C-99.1659375 34.3775 -99.1659375 34.3775 -98.1875 34.125 C-97.8575 33.135 -97.5275 32.145 -97.1875 31.125 C-96.1975 30.795 -95.2075 30.465 -94.1875 30.125 C-93.5275 29.465 -92.8675 28.805 -92.1875 28.125 C-90.1875 26.125 -90.1875 26.125 -87.1875 25.125 C-86.73375 24.650625 -86.28 24.17625 -85.8125 23.6875 C-83.78189644 21.73499657 -81.81978068 21.08802952 -79.1875 20.125 C-75.96979832 18.61078745 -73.10817489 16.94703115 -70.4375 14.5625 C-67.43641958 12.64514306 -64.69214261 12.46198487 -61.1875 12.125 C-61.1875 11.465 -61.1875 10.805 -61.1875 10.125 C-58.07509569 8.66606048 -55.32878645 7.96046898 -51.9375 7.625 C-50.7 7.46 -49.4625 7.295 -48.1875 7.125 C-47.8575 6.465 -47.5275 5.805 -47.1875 5.125 C-39.96199231 2.05555952 -33.05609536 0.66381788 -25.234375 1.08203125 C-22.75642876 1.11697665 -20.59370638 0.95907803 -18.15234375 0.64453125 C-12.10829897 -0.08214066 -6.08006037 -0.02371715 0 0 Z M-33.1875 2.125 C-33.1875 2.455 -33.1875 2.785 -33.1875 3.125 C-31.5375 3.125 -29.8875 3.125 -28.1875 3.125 C-28.1875 2.795 -28.1875 2.465 -28.1875 2.125 C-29.8375 2.125 -31.4875 2.125 -33.1875 2.125 Z M-41.1875 4.125 C-37.1875 5.125 -37.1875 5.125 -37.1875 5.125 Z M146.8125 97.125 C147.8125 99.125 147.8125 99.125 147.8125 99.125 Z M148.8125 101.125 C149.8125 103.125 149.8125 103.125 149.8125 103.125 Z M150.8125 108.125 C151.8125 110.125 151.8125 110.125 151.8125 110.125 Z M154.8125 120.125 C155.8125 123.125 155.8125 123.125 155.8125 123.125 Z M-157.1875 130.125 C-156.1875 134.125 -156.1875 134.125 -156.1875 134.125 Z M156.8125 132.125 C157.8125 136.125 157.8125 136.125 157.8125 136.125 Z M157.8125 136.125 C158.8125 138.125 158.8125 138.125 158.8125 138.125 Z M-158.1875 139.125 C-157.1875 142.125 -157.1875 142.125 -157.1875 142.125 Z M158.8125 141.125 C159.8125 143.125 159.8125 143.125 159.8125 143.125 Z M158.8125 146.125 C158.8125 148.435 158.8125 150.745 158.8125 153.125 C159.1425 153.125 159.4725 153.125 159.8125 153.125 C159.8125 150.815 159.8125 148.505 159.8125 146.125 C159.4825 146.125 159.1525 146.125 158.8125 146.125 Z M158.8125 166.125 C158.8125 168.435 158.8125 170.745 158.8125 173.125 C159.1425 173.125 159.4725 173.125 159.8125 173.125 C159.8125 170.815 159.8125 168.505 159.8125 166.125 C159.4825 166.125 159.1525 166.125 158.8125 166.125 Z M157.8125 178.125 C158.8125 181.125 158.8125 181.125 158.8125 181.125 Z M-157.1875 181.125 C-157.1875 183.105 -157.1875 185.085 -157.1875 187.125 C-156.8575 187.125 -156.5275 187.125 -156.1875 187.125 C-156.1875 185.145 -156.1875 183.165 -156.1875 181.125 C-156.5175 181.125 -156.8475 181.125 -157.1875 181.125 Z M155.8125 192.125 C156.8125 194.125 156.8125 194.125 156.8125 194.125 Z M-155.1875 193.125 C-154.1875 196.125 -154.1875 196.125 -154.1875 196.125 Z M-151.1875 207.125 C-150.1875 210.125 -150.1875 210.125 -150.1875 210.125 Z M-150.1875 211.125 C-149.1875 213.125 -149.1875 213.125 -149.1875 213.125 Z M142.8125 228.125 C143.8125 230.125 143.8125 230.125 143.8125 230.125 Z M-139.1875 235.125 C-138.1875 237.125 -138.1875 237.125 -138.1875 237.125 Z M122.8125 259.125 C123.8125 261.125 123.8125 261.125 123.8125 261.125 Z M110.8125 272.125 C111.8125 274.125 111.8125 274.125 111.8125 274.125 Z M27.8125 315.125 C27.8125 315.455 27.8125 315.785 27.8125 316.125 C29.4625 316.125 31.1125 316.125 32.8125 316.125 C32.8125 315.795 32.8125 315.465 32.8125 315.125 C31.1625 315.125 29.5125 315.125 27.8125 315.125 Z " fill="#FDFDFD" transform="translate(159.1875,0.875)"/>
<path d="M0 0 C1.19657227 0.00193359 2.39314453 0.00386719 3.62597656 0.00585938 C10.79236395 0.04096005 17.87901453 0.22657281 25.015625 0.90625 C28.28894589 1.16226392 31.53055833 1.15765614 34.8125 1.125 C34.8125 1.785 34.8125 2.445 34.8125 3.125 C35.42996094 3.24617187 36.04742187 3.36734375 36.68359375 3.4921875 C42.4124224 4.62574568 48.11602707 5.83869966 53.8125 7.125 C53.8125 7.785 53.8125 8.445 53.8125 9.125 C55.39449631 9.77410154 56.97815724 10.41914694 58.5625 11.0625 C59.88507813 11.60197266 59.88507813 11.60197266 61.234375 12.15234375 C63.42748357 12.9797438 65.53904401 13.58134748 67.8125 14.125 C69.16227849 14.75770867 70.49602881 15.42562468 71.8125 16.125 C72.4725 16.455 73.1325 16.785 73.8125 17.125 C76.47916667 18.45833333 79.14583333 19.79166667 81.8125 21.125 C82.8025 21.455 83.7925 21.785 84.8125 22.125 C85.8125 23.125 86.8125 24.125 87.8125 25.125 C88.37839844 25.39699219 88.94429687 25.66898438 89.52734375 25.94921875 C92.56647449 27.51294243 95.19052991 29.46845701 97.9375 31.5 C98.99195313 32.27085938 100.04640625 33.04171875 101.1328125 33.8359375 C103.56959534 35.91750418 104.72038776 37.1722521 105.8125 40.125 C106.8025 40.125 107.7925 40.125 108.8125 40.125 C108.8125 40.785 108.8125 41.445 108.8125 42.125 C109.43125 42.33125 110.05 42.5375 110.6875 42.75 C113.65903645 44.67275888 113.94274659 46.79094527 114.8125 50.125 C115.4725 50.125 116.1325 50.125 116.8125 50.125 C118.16823748 51.43554623 119.49862831 52.77248503 120.8125 54.125 C121.534375 54.62 122.25625 55.115 123 55.625 C125.117934 57.37777297 125.44339578 58.44899437 125.8125 61.125 C126.4725 61.125 127.1325 61.125 127.8125 61.125 C128.81812575 63.1362515 129.81937423 65.1401233 130.75 67.1875 C131.72040183 69.18647529 131.72040183 69.18647529 133.375 70.625 C134.8125 72.125 134.8125 72.125 135.25 73.9375 C136.08201564 77.17311639 137.82562149 79.47582865 139.8125 82.125 C140.4725 82.125 141.1325 82.125 141.8125 82.125 C141.93625 83.0325 142.06 83.94 142.1875 84.875 C142.74052286 87.75071885 143.49328293 89.57451366 144.8125 92.125 C144.8125 93.115 144.8125 94.105 144.8125 95.125 C145.8025 95.125 146.7925 95.125 147.8125 95.125 C153.55281891 107.61019362 153.55281891 107.61019362 152.8125 114.125 C153.4725 113.795 154.1325 113.465 154.8125 113.125 C156.5604503 118.36885089 157.00642201 122.59822267 156.8125 128.125 C157.4725 128.125 158.1325 128.125 158.8125 128.125 C160.71054319 137.82491476 161.09729618 147.15478347 161.01831055 157.00439453 C160.99970502 159.41319039 160.9978039 161.82160754 160.99804688 164.23046875 C160.99314265 165.76302419 160.98731918 167.29557703 160.98046875 168.828125 C160.97935593 169.54776428 160.9782431 170.26740356 160.97709656 171.0088501 C160.92866846 176.00883154 160.92866846 176.00883154 159.8125 177.125 C159.60361292 179.12103206 159.44474523 181.12242941 159.3125 183.125 C158.92361111 189.01388889 158.92361111 189.01388889 157.8125 190.125 C157.58725615 192.0878393 157.36495212 194.05144722 157.19140625 196.01953125 C156.77076019 198.35693562 155.88703482 200.0167872 154.8125 202.125 C154.43425546 203.59332429 154.10142473 205.0740217 153.8125 206.5625 C153.11305609 209.92649214 152.23302963 212.97954153 150.8125 216.125 C150.1525 216.125 149.4925 216.125 148.8125 216.125 C148.874375 217.2696875 148.874375 217.2696875 148.9375 218.4375 C148.8125 221.125 148.8125 221.125 146.8125 224.125 C146.503125 225.094375 146.19375 226.06375 145.875 227.0625 C144.60628398 230.71938735 143.34310447 233.35969776 139.8125 235.125 C139.15477572 238.15434491 139.15477572 238.15434491 138.8125 241.125 C137.8225 241.455 136.8325 241.785 135.8125 242.125 C135.10002268 243.7726038 134.43849617 245.44263529 133.8125 247.125 C132.83221384 248.47289347 131.83278865 249.80712715 130.8125 251.125 C130.52375 251.72828125 130.235 252.3315625 129.9375 252.953125 C128.6318217 255.47380949 127.05800346 257.57514917 125.3125 259.8125 C124.7040625 260.60011719 124.095625 261.38773437 123.46875 262.19921875 C121.8125 264.125 121.8125 264.125 119.8125 265.125 C117.76422215 266.94297118 117.76422215 266.94297118 116.9375 269.01953125 C115.58530034 271.55021047 113.99568472 272.96241148 111.8125 274.8125 C111.11125 275.41449219 110.41 276.01648438 109.6875 276.63671875 C107.8125 278.125 107.8125 278.125 105.8125 279.125 C105.296875 279.846875 104.78125 280.56875 104.25 281.3125 C101.50900118 284.47519094 98.67716661 286.35217324 95.171875 288.5859375 C92.96025198 290.02861874 90.89351396 291.56430911 88.8125 293.1875 C78.38275066 301.125 78.38275066 301.125 73.8125 301.125 C73.4825 301.785 73.1525 302.445 72.8125 303.125 C71.8225 303.125 70.8325 303.125 69.8125 303.125 C69.8125 303.785 69.8125 304.445 69.8125 305.125 C68.1494416 305.80061748 66.48155395 306.46433281 64.8125 307.125 C64.14992187 307.38925781 63.48734375 307.65351563 62.8046875 307.92578125 C62.10601562 308.19777344 61.40734375 308.46976562 60.6875 308.75 C59.69363281 309.14058594 59.69363281 309.14058594 58.6796875 309.5390625 C56.8125 310.125 56.8125 310.125 53.8125 310.125 C53.4825 310.785 53.1525 311.445 52.8125 312.125 C41.28873551 316.77494006 29.05882569 318.56382531 16.703125 318.1328125 C13.98316002 317.98972202 13.98316002 317.98972202 12.13037109 318.61401367 C8.71793843 319.3663016 5.31352038 319.28772964 1.8359375 319.29296875 C1.06947906 319.29629715 0.30302063 319.29962555 -0.48666382 319.30305481 C-2.10210573 319.30810583 -3.71755802 319.3104637 -5.33300781 319.31030273 C-7.81071924 319.31249842 -10.28799175 319.33069802 -12.765625 319.34960938 C-14.33593598 319.35254179 -15.90624907 319.3545276 -17.4765625 319.35546875 C-18.21927399 319.36265427 -18.96198547 319.36983978 -19.72720337 319.37724304 C-24.95866265 319.35383735 -24.95866265 319.35383735 -27.1875 317.125 C-29.1576489 317.125 -31.12823172 317.13017355 -33.09765625 317.18359375 C-36.03121578 317.10134442 -38.45867502 316.15588944 -41.1875 315.125 C-42.33025391 314.90070313 -42.33025391 314.90070313 -43.49609375 314.671875 C-51.24271557 313.09781541 -58.52554193 310.36442786 -65.1875 306.125 C-65.1875 305.465 -65.1875 304.805 -65.1875 304.125 C-66.3321875 304.1559375 -66.3321875 304.1559375 -67.5 304.1875 C-70.1875 304.125 -70.1875 304.125 -73.1875 303.125 C-73.1875 302.465 -73.1875 301.805 -73.1875 301.125 C-74.1775 300.91875 -75.1675 300.7125 -76.1875 300.5 C-80.86172183 299.18089445 -84.69448702 296.46377604 -88.1875 293.125 C-88.1875 292.465 -88.1875 291.805 -88.1875 291.125 C-89.156875 290.83625 -90.12625 290.5475 -91.125 290.25 C-94.1875 289.125 -94.1875 289.125 -95.1875 287.125 C-96.83113134 286.40340576 -98.49800386 285.73148579 -100.1875 285.125 C-100.1875 284.465 -100.1875 283.805 -100.1875 283.125 C-100.991875 282.7846875 -100.991875 282.7846875 -101.8125 282.4375 C-108.87897119 278.53234487 -114.83040945 272.08154484 -118.9375 265.1875 C-120.07934215 262.80138011 -120.07934215 262.80138011 -123.1875 262.125 C-124.50390625 260.41796875 -124.50390625 260.41796875 -125.75 258.3125 C-126.16378906 257.62542969 -126.57757813 256.93835938 -127.00390625 256.23046875 C-128.13214428 254.22347107 -129.17850463 252.19413796 -130.1875 250.125 C-130.8475 250.125 -131.5075 250.125 -132.1875 250.125 C-134.93528884 246.54454788 -136.65718862 243.6326467 -137.1875 239.125 C-137.8475 239.125 -138.5075 239.125 -139.1875 239.125 C-141.72059233 234.48296103 -143.65265599 230.47344008 -144.1875 225.125 C-144.8475 225.125 -145.5075 225.125 -146.1875 225.125 C-147.17209071 222.7312703 -148.15028703 220.3352493 -149.125 217.9375 C-149.40279297 217.26396484 -149.68058594 216.59042969 -149.96679688 215.89648438 C-151.41992066 212.3074437 -152.50269511 208.95269891 -153.1875 205.125 C-153.5175 204.795 -153.8475 204.465 -154.1875 204.125 C-155.55496592 199.94216305 -156.1875 196.48658632 -156.1875 192.125 C-156.8465841 190.45532028 -157.51400839 188.78892045 -158.1875 187.125 C-159.04845532 182.22261914 -159.30542202 177.51915942 -159.28515625 172.546875 C-159.2837413 171.85362122 -159.28232635 171.16036743 -159.28086853 170.44610596 C-159.27532595 168.25569116 -159.26279655 166.06538319 -159.25 163.875 C-159.24497647 162.3906265 -159.24041506 160.90625137 -159.23632812 159.421875 C-159.2250268 155.65622068 -159.20636876 151.89062413 -159.1875 148.125 C-159.1875 147.135 -159.1875 146.145 -159.1875 145.125 C-159.08022523 142.64356522 -158.95512811 140.16685202 -158.8125 137.6875 C-158.7815625 137.01912109 -158.750625 136.35074219 -158.71875 135.66210938 C-158.50323718 132.03790204 -158.13841322 129.22584175 -156.1875 126.125 C-155.8575 126.125 -155.5275 126.125 -155.1875 126.125 C-154.8575 121.835 -154.5275 117.545 -154.1875 113.125 C-153.5275 113.125 -152.8675 113.125 -152.1875 113.125 C-152.1875 111.145 -152.1875 109.165 -152.1875 107.125 C-151.5275 107.125 -150.8675 107.125 -150.1875 107.125 C-149.19738557 104.94190366 -148.22044432 102.75432734 -147.25 100.5625 C-146.97220703 99.95341797 -146.69441406 99.34433594 -146.40820312 98.71679688 C-144.56074242 94.50992851 -143.81573653 90.70376894 -143.1875 86.125 C-142.1975 85.135 -142.1975 85.135 -141.1875 84.125 C-139.24951737 81.35239701 -139.24951737 81.35239701 -138.1875 79.125 C-137.548125 78.3825 -136.90875 77.64 -136.25 76.875 C-134.02360049 74.21365197 -134.02360049 74.21365197 -133.125 70.875 C-132.815625 69.9675 -132.50625 69.06 -132.1875 68.125 C-130.7025 67.63 -130.7025 67.63 -129.1875 67.125 C-127.40932775 65.03269359 -125.75496397 62.95175629 -124.125 60.75 C-123.67833984 60.15960938 -123.23167969 59.56921875 -122.77148438 58.9609375 C-119.17528085 54.23773756 -119.17528085 54.23773756 -116.1875 49.125 C-115.1875 48.125 -114.1875 47.125 -113.1875 46.125 C-112.5275 45.135 -111.8675 44.145 -111.1875 43.125 C-110.548125 42.980625 -109.90875 42.83625 -109.25 42.6875 C-106.43065672 41.9185882 -105.74640352 40.53421453 -104.1875 38.125 C-102.1875 35.125 -102.1875 35.125 -100.125 34.625 C-99.1659375 34.3775 -99.1659375 34.3775 -98.1875 34.125 C-97.8575 33.135 -97.5275 32.145 -97.1875 31.125 C-96.1975 30.795 -95.2075 30.465 -94.1875 30.125 C-93.5275 29.465 -92.8675 28.805 -92.1875 28.125 C-90.1875 26.125 -90.1875 26.125 -87.1875 25.125 C-86.73375 24.650625 -86.28 24.17625 -85.8125 23.6875 C-83.78189644 21.73499657 -81.81978068 21.08802952 -79.1875 20.125 C-75.96979832 18.61078745 -73.10817489 16.94703115 -70.4375 14.5625 C-67.43641958 12.64514306 -64.69214261 12.46198487 -61.1875 12.125 C-61.1875 11.465 -61.1875 10.805 -61.1875 10.125 C-58.07509569 8.66606048 -55.32878645 7.96046898 -51.9375 7.625 C-50.7 7.46 -49.4625 7.295 -48.1875 7.125 C-47.8575 6.465 -47.5275 5.805 -47.1875 5.125 C-39.96199231 2.05555952 -33.05609536 0.66381788 -25.234375 1.08203125 C-22.75642876 1.11697665 -20.59370638 0.95907803 -18.15234375 0.64453125 C-12.10829897 -0.08214066 -6.08006037 -0.02371715 0 0 Z M-33.1875 2.125 C-33.1875 2.455 -33.1875 2.785 -33.1875 3.125 C-31.5375 3.125 -29.8875 3.125 -28.1875 3.125 C-28.1875 2.795 -28.1875 2.465 -28.1875 2.125 C-29.8375 2.125 -31.4875 2.125 -33.1875 2.125 Z M-41.1875 4.125 C-37.1875 5.125 -37.1875 5.125 -37.1875 5.125 Z M-106.1875 69.125 C-117.1558951 82.1227004 -125.76794394 97.00736116 -131.1875 113.125 C-131.54457031 114.135625 -131.90164062 115.14625 -132.26953125 116.1875 C-139.53640654 137.96090911 -140.33833226 161.61769214 -136.1875 184.125 C-135.96964844 185.38441406 -135.75179687 186.64382812 -135.52734375 187.94140625 C-129.51321469 220.50972263 -108.99649067 252.89763775 -81.64819336 271.92163086 C-51.11572596 292.28207443 -14.44956072 304.2262892 22.5625 296.875 C24.98627421 296.32194111 27.40365979 295.73985314 29.8125 295.125 C31.60880859 294.72474609 31.60880859 294.72474609 33.44140625 294.31640625 C55.99541117 288.93501589 76.90304557 277.96341413 93.8125 262.125 C94.58352051 261.40957031 94.58352051 261.40957031 95.37011719 260.6796875 C107.78080736 249.05389383 117.03084904 236.21890922 124.8125 221.125 C125.14411133 220.48240234 125.47572266 219.83980469 125.81738281 219.17773438 C130.25335896 210.44844665 133.56845469 201.68297076 135.8125 192.125 C136.1115625 190.9596875 136.410625 189.794375 136.71875 188.59375 C144.54882551 152.92340599 137.35050015 114.72544384 117.8125 84.125 C117.40725098 83.48691406 117.00200195 82.84882812 116.58447266 82.19140625 C97.23590961 52.42200578 66.08361607 30.87045087 31.48217773 22.99365234 C-20.99371681 12.10753554 -70.77939049 29.47472083 -106.1875 69.125 Z M146.8125 97.125 C147.8125 99.125 147.8125 99.125 147.8125 99.125 Z M148.8125 101.125 C149.8125 103.125 149.8125 103.125 149.8125 103.125 Z M150.8125 108.125 C151.8125 110.125 151.8125 110.125 151.8125 110.125 Z M154.8125 120.125 C155.8125 123.125 155.8125 123.125 155.8125 123.125 Z M-157.1875 130.125 C-156.1875 134.125 -156.1875 134.125 -156.1875 134.125 Z M156.8125 132.125 C157.8125 136.125 157.8125 136.125 157.8125 136.125 Z M157.8125 136.125 C158.8125 138.125 158.8125 138.125 158.8125 138.125 Z M-158.1875 139.125 C-157.1875 142.125 -157.1875 142.125 -157.1875 142.125 Z M158.8125 141.125 C159.8125 143.125 159.8125 143.125 159.8125 143.125 Z M158.8125 146.125 C158.8125 148.435 158.8125 150.745 158.8125 153.125 C159.1425 153.125 159.4725 153.125 159.8125 153.125 C159.8125 150.815 159.8125 148.505 159.8125 146.125 C159.4825 146.125 159.1525 146.125 158.8125 146.125 Z M158.8125 166.125 C158.8125 168.435 158.8125 170.745 158.8125 173.125 C159.1425 173.125 159.4725 173.125 159.8125 173.125 C159.8125 170.815 159.8125 168.505 159.8125 166.125 C159.4825 166.125 159.1525 166.125 158.8125 166.125 Z M157.8125 178.125 C158.8125 181.125 158.8125 181.125 158.8125 181.125 Z M-157.1875 181.125 C-157.1875 183.105 -157.1875 185.085 -157.1875 187.125 C-156.8575 187.125 -156.5275 187.125 -156.1875 187.125 C-156.1875 185.145 -156.1875 183.165 -156.1875 181.125 C-156.5175 181.125 -156.8475 181.125 -157.1875 181.125 Z M155.8125 192.125 C156.8125 194.125 156.8125 194.125 156.8125 194.125 Z M-155.1875 193.125 C-154.1875 196.125 -154.1875 196.125 -154.1875 196.125 Z M-151.1875 207.125 C-150.1875 210.125 -150.1875 210.125 -150.1875 210.125 Z M-150.1875 211.125 C-149.1875 213.125 -149.1875 213.125 -149.1875 213.125 Z M142.8125 228.125 C143.8125 230.125 143.8125 230.125 143.8125 230.125 Z M-139.1875 235.125 C-138.1875 237.125 -138.1875 237.125 -138.1875 237.125 Z M122.8125 259.125 C123.8125 261.125 123.8125 261.125 123.8125 261.125 Z M110.8125 272.125 C111.8125 274.125 111.8125 274.125 111.8125 274.125 Z M27.8125 315.125 C27.8125 315.455 27.8125 315.785 27.8125 316.125 C29.4625 316.125 31.1125 316.125 32.8125 316.125 C32.8125 315.795 32.8125 315.465 32.8125 315.125 C31.1625 315.125 29.5125 315.125 27.8125 315.125 Z " fill="#58529C" transform="translate(159.1875,0.875)"/>
<path d="M0 0 C3.73724331 1.50493019 5.58268345 3.61662432 8.0625 6.75 C8.83980469 7.72582031 9.61710937 8.70164063 10.41796875 9.70703125 C11.27895478 10.80444518 12.13961512 11.90211469 13 13 C13.97487039 14.23338129 14.95014265 15.46644504 15.92578125 16.69921875 C18.62971008 20.12321799 21.32294162 23.55493307 24 27 C24.60070312 27.75410156 25.20140625 28.50820312 25.8203125 29.28515625 C27 31 27 31 27 33 C23.37 33 19.74 33 16 33 C16.04640625 33.95777344 16.0928125 34.91554687 16.140625 35.90234375 C16.87667537 58.11076021 9.43886432 81.68694055 -5.5625 98.375 C-7.03913312 99.91909351 -8.51808064 101.46097916 -10 103 C-11.04770157 104.24494613 -12.08959758 105.49480628 -13.125 106.75 C-22.0363604 116.93735196 -32.53192737 125.70846673 -43.26953125 133.890625 C-45.96642276 135.88156577 -45.96642276 135.88156577 -48 138 C-50.65291757 138.17510386 -53.19986174 138.23155483 -55.8515625 138.1953125 C-57.01261002 138.19106766 -57.01261002 138.19106766 -58.19711304 138.18673706 C-60.67323157 138.17552754 -63.1489905 138.15042203 -65.625 138.125 C-67.30207812 138.11497118 -68.97916189 138.10584516 -70.65625 138.09765625 C-74.77097223 138.07558574 -78.88542511 138.04105102 -83 138 C-82.64938993 131.03112332 -81.81670456 125.18911135 -78.8125 118.875 C-78.33949463 117.84608643 -78.33949463 117.84608643 -77.85693359 116.79638672 C-68.83121323 97.61389196 -53.18897467 84.51635893 -35.390625 73.68359375 C-24.78248641 67.02168271 -17.36237471 59.29459621 -14 47 C-13.36960286 42.32847492 -13.07666638 37.71149777 -13 33 C-16.63 33 -20.26 33 -24 33 C-22.06060956 29.12121911 -19.76203744 26.02996284 -17.0625 22.6875 C-11.15537551 15.28199749 -5.5549321 7.67160835 0 0 Z " fill="#63429D" transform="translate(214,123)"/>
<path d="M0 0 C1.24720066 0.54773664 2.49492616 1.09427972 3.74316406 1.63964844 C6.20953916 2.71733952 8.67431104 3.79840299 11.13818359 4.88183594 C15.67133582 6.85850491 20.23348033 8.75751382 24.8125 10.625 C25.51431396 10.91197754 26.21612793 11.19895508 26.93920898 11.49462891 C28.47952452 12.12333725 30.02086409 12.74953629 31.5625 13.375 C31.5625 14.365 31.5625 15.355 31.5625 16.375 C19.43589899 21.7450312 7.26177171 27.00814013 -5 32.0625 C-6.0511499 32.50835449 -7.1022998 32.95420898 -8.18530273 33.41357422 C-9.17731689 33.81721191 -10.16933105 34.22084961 -11.19140625 34.63671875 C-12.49573608 35.17752075 -12.49573608 35.17752075 -13.82641602 35.72924805 C-19.79261492 37.2047596 -25.22856269 34.44891191 -30.6796875 32.21484375 C-31.44805939 31.90551407 -32.21643127 31.59618439 -33.00808716 31.27748108 C-35.4452306 30.29482998 -37.87886771 29.30381046 -40.3125 28.3125 C-41.9711292 27.64202133 -43.62998119 26.97209351 -45.2890625 26.30273438 C-49.34114816 24.66652095 -53.39011189 23.02279724 -57.4375 21.375 C-57.4375 25.335 -57.4375 29.295 -57.4375 33.375 C-58.9225 33.87 -58.9225 33.87 -60.4375 34.375 C-60.4375 29.095 -60.4375 23.815 -60.4375 18.375 C-62.7475 18.045 -65.0575 17.715 -67.4375 17.375 C-68.0975 17.045 -68.7575 16.715 -69.4375 16.375 C-68.4375 13.375 -68.4375 13.375 -66.48583984 12.27514648 C-65.20507568 11.76576538 -65.20507568 11.76576538 -63.8984375 11.24609375 C-62.45500977 10.65985229 -62.45500977 10.65985229 -60.98242188 10.06176758 C-59.93634766 9.64950928 -58.89027344 9.23725098 -57.8125 8.8125 C-55.62143364 7.93207829 -53.43135374 7.04919827 -51.2421875 6.1640625 C-50.11651367 5.7093457 -48.99083984 5.25462891 -47.83105469 4.78613281 C-44.52245624 3.41032713 -41.26363273 1.95690914 -38.0078125 0.4609375 C-36.98768066 -0.00368896 -35.96754883 -0.46831543 -34.91650391 -0.94702148 C-32.97198606 -1.83832523 -31.03375455 -2.74351107 -29.10302734 -3.66430664 C-17.90223611 -8.74147138 -10.69868367 -4.77635193 0 0 Z " fill="#182A42" transform="translate(180.4375,65.625)"/>
<path d="M0 0 C3.73724331 1.50493019 5.58268345 3.61662432 8.0625 6.75 C9.22845703 8.21373047 9.22845703 8.21373047 10.41796875 9.70703125 C11.27895478 10.80444518 12.13961512 11.90211469 13 13 C13.97487039 14.23338129 14.95014265 15.46644504 15.92578125 16.69921875 C18.62971008 20.12321799 21.32294162 23.55493307 24 27 C24.60070312 27.75410156 25.20140625 28.50820312 25.8203125 29.28515625 C27 31 27 31 27 33 C23.37 33 19.74 33 16 33 C16.04640625 33.95777344 16.0928125 34.91554687 16.140625 35.90234375 C16.39383268 43.64088068 15.94019727 50.7647135 14.125 58.3125 C13.95129883 59.03493896 13.77759766 59.75737793 13.59863281 60.50170898 C12.75131372 63.78800711 11.89973902 66.15039147 10 69 C7.5625 68.625 7.5625 68.625 5 68 C4.67 67.34 4.34 66.68 4 66 C3.0925 66.515625 2.185 67.03125 1.25 67.5625 C-2 69 -2 69 -4.1875 68.875 C-6.26744169 67.87089022 -7.36939329 66.63060671 -9 65 C-11.98352894 63.21620585 -11.98352894 63.21620585 -15 62 C-15.99 62.495 -15.99 62.495 -17 63 C-17.33 63.99 -17.66 64.98 -18 66 C-17.34 66.33 -16.68 66.66 -16 67 C-17.485 67.99 -17.485 67.99 -19 69 C-19.639375 68.814375 -20.27875 68.62875 -20.9375 68.4375 C-21.618125 68.293125 -22.29875 68.14875 -23 68 C-24.34789347 68.98028616 -25.68212715 69.97971135 -27 71 C-27.99 70.67 -28.98 70.34 -30 70 C-29.48050781 69.5875 -28.96101562 69.175 -28.42578125 68.75 C-23.48155327 64.655704 -19.92264359 60.72304733 -17 55 C-16.69191406 54.40832031 -16.38382813 53.81664062 -16.06640625 53.20703125 C-13.220736 46.82129275 -13.28058083 39.88874302 -13 33 C-16.63 33 -20.26 33 -24 33 C-22.06060956 29.12121911 -19.76203744 26.02996284 -17.0625 22.6875 C-11.15537551 15.28199749 -5.5549321 7.67160835 0 0 Z " fill="#4177AD" transform="translate(214,123)"/>
<path d="M0 0 C-0.67804688 0.40089844 -1.35609375 0.80179688 -2.0546875 1.21484375 C-20.83953512 12.68869112 -34.79371351 29.08520299 -42 50 C-42.99 54.29 -43.98 58.58 -45 63 C-56.88 63 -68.76 63 -81 63 C-77.51641839 47.90447969 -77.51641839 47.90447969 -73.875 42.3125 C-73.48175537 41.68657959 -73.08851074 41.06065918 -72.68334961 40.41577148 C-58.38667743 18.26347215 -35.01795571 6.17876872 -10 0 C-6.29474311 -0.78679529 -3.61558275 -1.25154788 0 0 Z " fill="#31B7C7" transform="translate(169,198)"/>
<path d="M0 0 C1.43931117 0.45261358 2.87638999 0.91232979 4.3125 1.375 C5.11300781 1.63023438 5.91351563 1.88546875 6.73828125 2.1484375 C9 3 9 3 12 5 C12.51953125 7.1015625 12.51953125 7.1015625 12.8125 9.625 C14.33323446 18.27573537 20.1430538 23.89263543 27 29 C29.99181417 30.49590709 31.6416206 30.42743011 35 30 C42.85576084 26.19157212 48.53360823 19.98845739 52 12 C52.103125 10.824375 52.20625 9.64875 52.3125 8.4375 C53 5 53 5 55.125 3.125 C58.42263917 1.83461945 61.48410441 1.34469565 65 1 C65.9090679 17.66624488 55.54703778 30.22468097 45 42 C44.12859375 42.98226562 43.2571875 43.96453125 42.359375 44.9765625 C36.79560811 51.20439189 36.79560811 51.20439189 34 54 C26.41661477 53.20421266 20.30878542 44.46004831 15.7980957 39.04443359 C6.78562071 27.7236951 -0.70157137 14.73299886 0 0 Z " fill="#5F4E9E" transform="translate(130,108)"/>
<path d="M0 0 C4.55550171 1.46702597 9.00177369 3.14606221 13.4375 4.9375 C14.06720703 5.18951172 14.69691406 5.44152344 15.34570312 5.70117188 C18.46291918 6.95382499 21.53547546 8.24244654 24.59765625 9.62890625 C30.31442803 11.93267995 33.98725421 12.41021234 39.8125 10.3125 C40.8540625 9.93867187 41.895625 9.56484375 42.96875 9.1796875 C47.04909951 7.59171643 51.03291477 5.85029119 55 4 C61.54893617 1 61.54893617 1 65 1 C65 4.63 65 8.26 65 12 C61.74499969 13.40826479 58.48678926 14.80838011 55.22265625 16.1953125 C52.30259625 17.43663076 49.39724957 18.70736317 46.49609375 19.9921875 C44.99762838 20.64116222 43.49893447 21.28960951 42 21.9375 C41.29496338 22.255979 40.58992676 22.57445801 39.86352539 22.90258789 C33.66074314 25.54805496 29.77655394 24.76517815 23.57421875 22.29296875 C21.94246518 21.5977916 20.31360555 20.89578787 18.6875 20.1875 C17.88376953 19.84396484 17.08003906 19.50042969 16.25195312 19.14648438 C10.81252323 16.81404984 5.40443644 14.41221085 0 12 C0 8.04 0 4.08 0 0 Z " fill="#1F2F47" transform="translate(130,92)"/>
<path d="M0 0 C3.73724331 1.50493019 5.58268345 3.61662432 8.0625 6.75 C9.22845703 8.21373047 9.22845703 8.21373047 10.41796875 9.70703125 C11.27895478 10.80444518 12.13961512 11.90211469 13 13 C13.97487039 14.23338129 14.95014265 15.46644504 15.92578125 16.69921875 C18.62971008 20.12321799 21.32294162 23.55493307 24 27 C24.60070312 27.75410156 25.20140625 28.50820312 25.8203125 29.28515625 C27 31 27 31 27 33 C23.37 33 19.74 33 16 33 C16 38.28 16 43.56 16 49 C15.67 49 15.34 49 15 49 C15.01160156 47.78441406 15.02320313 46.56882813 15.03515625 45.31640625 C15.04453278 43.73177236 15.05363313 42.14713682 15.0625 40.5625 C15.07506836 39.35883789 15.07506836 39.35883789 15.08789062 38.13085938 C15.0965143 36.08704779 15.0522815 34.04316098 15 32 C13.36920752 30.36920752 11.25296968 29.83885182 9.125 29 C8.24070313 28.649375 7.35640625 28.29875 6.4453125 27.9375 C3.17530412 26.68382266 0.49437446 25.84559067 -3 25.8125 C-4.0209375 25.79123047 -4.0209375 25.79123047 -5.0625 25.76953125 C-7.32614132 25.89059589 -7.32614132 25.89059589 -10 28 C-10.66 28.33 -11.32 28.66 -12 29 C-12.33 30.32 -12.66 31.64 -13 33 C-16.63 33 -20.26 33 -24 33 C-22.06060956 29.12121911 -19.76203744 26.02996284 -17.0625 22.6875 C-11.15537551 15.28199749 -5.5549321 7.67160835 0 0 Z " fill="#3DA9C6" transform="translate(214,123)"/>
<path d="M0 0 C-0.66 1.32 -1.32 2.64 -2 4 C-2.66 4 -3.32 4 -4 4 C-4.33 4.66 -4.66 5.32 -5 6 C-6.32 6 -7.64 6 -9 6 C-14.66103175 7.20447484 -16.68576864 9.51603993 -20 14 C-20.495 13.01 -20.495 13.01 -21 12 C-21.53625 12.433125 -22.0725 12.86625 -22.625 13.3125 C-25.2916723 15.20724084 -28.07679738 16.53839869 -31 18 C-32.34789347 18.98028616 -33.68212715 19.97971135 -35 21 C-37.91194915 22.99238626 -39.6486192 23.95866108 -43.1875 24.375 C-44.115625 24.58125 -45.04375 24.7875 -46 25 C-46.72904086 26.64034193 -47.38655243 28.31301918 -48 30 C-51.4445271 33.29143701 -54.4890816 35.49636053 -59 37 C-59.928125 37.37125 -60.85625 37.7425 -61.8125 38.125 C-62.534375 38.41375 -63.25625 38.7025 -64 39 C-64 40.32 -64 41.64 -64 43 C-65.93359375 44.8515625 -65.93359375 44.8515625 -68.4375 46.625 C-71.75994578 48.84524975 -71.75994578 48.84524975 -74 52 C-74.66 52 -75.32 52 -76 52 C-76.4640625 53.175625 -76.4640625 53.175625 -76.9375 54.375 C-78 57 -78 57 -79 59 C-79.66 59 -80.32 59 -81 59 C-82.39201493 63.56879294 -82.39201493 63.56879294 -83.25 68.25 C-84.51171373 71.19399871 -87.18566402 71.80241022 -90 73 C-88.98044199 67.05257829 -87.28912536 62.22179814 -82.875 57.9375 C-77.83251687 53.00038219 -73.05101436 47.38066017 -70 41 C-69.0206121 39.97980427 -68.02104551 38.97850195 -67 38 C-66.34 37.01 -65.68 36.02 -65 35 C-64.360625 34.855625 -63.72125 34.71125 -63.0625 34.5625 C-60.24315672 33.7935882 -59.55890352 32.40921453 -58 30 C-56 27 -56 27 -53.9375 26.5 C-52.9784375 26.2525 -52.9784375 26.2525 -52 26 C-51.505 24.515 -51.505 24.515 -51 23 C-50.01 22.67 -49.02 22.34 -48 22 C-47.34 21.34 -46.68 20.68 -46 20 C-44 18 -44 18 -41 17 C-40.54625 16.525625 -40.0925 16.05125 -39.625 15.5625 C-37.59439644 13.60999657 -35.63228068 12.96302952 -33 12 C-29.78229832 10.48578745 -26.92067489 8.82203115 -24.25 6.4375 C-21.24891958 4.52014306 -18.50464261 4.33698487 -15 4 C-15 3.34 -15 2.68 -15 2 C-10.13948404 -0.59227518 -5.34728867 -0.18689553 0 0 Z " fill="#4979B5" transform="translate(113,9)"/>
<path d="M0 0 C5.53347338 0.05181155 10.3846076 2.24300446 15.4375 4.3125 C16.37207031 4.68632812 17.30664062 5.06015625 18.26953125 5.4453125 C18.98496094 5.73148438 19.70039063 6.01765625 20.4375 6.3125 C19.4475 6.8075 19.4475 6.8075 18.4375 7.3125 C18.48970703 8.25222656 18.48970703 8.25222656 18.54296875 9.2109375 C18.57003906 10.02820313 18.59710938 10.84546875 18.625 11.6875 C18.67720703 12.90566406 18.67720703 12.90566406 18.73046875 14.1484375 C18.63378906 14.86257812 18.53710938 15.57671875 18.4375 16.3125 C17.4475 16.9725 16.4575 17.6325 15.4375 18.3125 C15.4375 17.6525 15.4375 16.9925 15.4375 16.3125 C14.7775 16.3125 14.1175 16.3125 13.4375 16.3125 C13.1075 16.9725 12.7775 17.6325 12.4375 18.3125 C11.509375 18.02375 10.58125 17.735 9.625 17.4375 C6.35445281 16.5230817 3.06969524 15.71644897 -0.25 15 C-1.16136719 14.79761719 -2.07273438 14.59523437 -3.01171875 14.38671875 C-6.1921393 14.29417971 -7.2723636 15.19398975 -9.5625 17.3125 C-9.61699838 15.58369018 -9.65551688 13.85437288 -9.6875 12.125 C-9.71070313 11.16207031 -9.73390625 10.19914063 -9.7578125 9.20703125 C-9.55200441 6.1569553 -8.92503266 4.03756532 -7.5625 1.3125 C-5.13747759 0.09998879 -2.71056517 0.23776887 0 0 Z " fill="#3790B7" transform="translate(210.5625,147.6875)"/>
<path d="M0 0 C1.43931117 0.45261358 2.87638999 0.91232979 4.3125 1.375 C5.11300781 1.63023438 5.91351563 1.88546875 6.73828125 2.1484375 C9 3 9 3 12 5 C12.51953125 7.1015625 12.51953125 7.1015625 12.8125 9.625 C13.77501919 15.35032967 16.34143078 18.64811591 20 23 C20.33 23.66 20.66 24.32 21 25 C20.0925 24.79375 19.185 24.5875 18.25 24.375 C14.80160268 23.977108 13.84914818 24.2315632 11 26 C10.01 26.33 9.02 26.66 8 27 C6.84917315 24.75243216 5.70423142 22.50218252 4.5625 20.25 C4.23701172 19.61578125 3.91152344 18.9815625 3.57617188 18.328125 C1.06684348 13.36120695 -0.14375782 9.77553194 -0.0625 4.25 C-0.05347656 3.45078125 -0.04445312 2.6515625 -0.03515625 1.828125 C-0.02355469 1.22484375 -0.01195312 0.6215625 0 0 Z " fill="#496FAC" transform="translate(130,108)"/>
<path d="M0 0 C0.99 0.495 0.99 0.495 2 1 C1.67 1.33 1.34 1.66 1 2 C0.76518307 4.18292774 0.58636677 6.37203174 0.4375 8.5625 C0.31181641 10.35880859 0.31181641 10.35880859 0.18359375 12.19140625 C0.12300781 13.11824219 0.06242187 14.04507813 0 15 C-0.33 15 -0.66 15 -1 15 C-1 11.7 -1 8.4 -1 5 C-2.96464221 5.76188739 -4.9292292 6.52391748 -6.89355469 7.28662109 C-8.55281711 7.93080149 -10.212324 8.57435253 -11.87207031 9.21728516 C-16.18489301 10.89128546 -20.47741163 12.60023252 -24.75 14.375 C-32.29820133 17.34541654 -36.57617714 16.95819507 -44 14 C-44.97839844 13.61199219 -45.95679688 13.22398438 -46.96484375 12.82421875 C-52.78026125 10.4555178 -58.42780631 7.89325441 -64 5 C-63.67 4.34 -63.34 3.68 -63 3 C-59.37025002 3.61328438 -56.2744793 4.61747901 -52.91015625 6.1015625 C-51.96076172 6.50890625 -51.01136719 6.91625 -50.03320312 7.3359375 C-48.05315262 8.19513101 -46.07655641 9.06232943 -44.10351562 9.9375 C-43.15283203 10.34226562 -42.20214844 10.74703125 -41.22265625 11.1640625 C-40.36422119 11.53998535 -39.50578613 11.9159082 -38.62133789 12.30322266 C-32.97953223 13.80286998 -28.11548799 11.40009712 -22.921875 9.2421875 C-21.58335361 8.6939609 -20.24481135 8.14578528 -18.90625 7.59765625 C-16.81612321 6.73286135 -14.72709942 5.86547221 -12.63867188 4.99658203 C-10.61065064 4.15536034 -8.57900765 3.323417 -6.546875 2.4921875 C-5.33870117 1.99058105 -4.13052734 1.48897461 -2.88574219 0.97216797 C-1.4572998 0.49094482 -1.4572998 0.49094482 0 0 Z " fill="#E1E4E8" transform="translate(196,88)"/>
<path d="M0 0 C0.99 0 1.98 0 3 0 C2.67 0.515625 2.34 1.03125 2 1.5625 C0.13075641 6.11878125 0.83163222 10.32652889 2 15 C5.63 15.33 9.26 15.66 13 16 C13.33 15.01 13.66 14.02 14 13 C17.22064378 12.91053767 19.89752377 13.17267301 23 14 C23.99 14 24.98 14 26 14 C26.33 12.68 26.66 11.36 27 10 C30.153368 9.29925156 32.72724974 9 36 9 C38.6859613 8.27587495 38.6859613 8.27587495 41 7 C41.33 6.01 41.66 5.02 42 4 C44.0625 3.3125 44.0625 3.3125 46 3 C44.06531481 5.43075832 42.10314876 7.71955735 40 10 C39.44505859 10.62712891 38.89011719 11.25425781 38.31835938 11.90039062 C32.01280867 17.89678256 26.00460917 17.79917132 17.76757812 17.61523438 C16.15752365 17.55676734 14.54749759 17.49751297 12.9375 17.4375 C11.2923843 17.40233203 9.64719601 17.37040269 8.00195312 17.34179688 C3.99948818 17.26521992 0.00055579 17.14475172 -4 17 C-3.87356562 15.24292006 -3.73760777 13.48652374 -3.59765625 11.73046875 C-3.52297119 10.75231201 -3.44828613 9.77415527 -3.37133789 8.76635742 C-2.89824773 5.24197566 -1.86171141 2.99492705 0 0 Z " fill="#83239C" transform="translate(135,244)"/>
<path d="M0 0 C-0.68964844 0.4125 -1.37929687 0.825 -2.08984375 1.25 C-8.66212572 5.28893323 -14.41076747 9.68677895 -20 15 C-20.99 14.67 -21.98 14.34 -23 14 C-23.28875 13.34 -23.5775 12.68 -23.875 12 C-24.83885119 9.73592769 -24.83885119 9.73592769 -27.4375 9.3125 C-28.7059375 9.1578125 -28.7059375 9.1578125 -30 9 C-30.99 8.67 -31.98 8.34 -33 8 C-24.2370585 3.64171163 -9.77376452 -3.38322618 0 0 Z " fill="#34B6D1" transform="translate(169,198)"/>
<path d="M0 0 C2 2 2 2 2.375 4.375 C1.89262388 7.75163282 0.55541504 8.84386856 -2 11 C-1.34 12.32 -0.68 13.64 0 15 C-1.32 15.33 -2.64 15.66 -4 16 C-5.32378058 14.44704556 -6.63361849 12.88219918 -7.9375 11.3125 C-8.66839844 10.44238281 -9.39929688 9.57226562 -10.15234375 8.67578125 C-12.0264934 5.96163219 -12.73890125 4.26095677 -13 1 C-12 -1 -12 -1 -9.875 -1.75 C-6.17250868 -2.07195577 -3.47924489 -1.24727647 0 0 Z " fill="#505FA6" transform="translate(152,133)"/>
<path d="M0 0 C0.66 0.33 1.32 0.66 2 1 C1.38125 1.9075 0.7625 2.815 0.125 3.75 C-1.97292369 6.75743622 -1.97292369 6.75743622 -3 9.3125 C-4 11 -4 11 -6.125 11.75 C-7.053125 11.87375 -7.053125 11.87375 -8 12 C-8 13.32 -8 14.64 -8 16 C-9.93359375 17.8515625 -9.93359375 17.8515625 -12.4375 19.625 C-15.75994578 21.84524975 -15.75994578 21.84524975 -18 25 C-18.66 25 -19.32 25 -20 25 C-20.309375 25.78375 -20.61875 26.5675 -20.9375 27.375 C-22 30 -22 30 -23 32 C-23.66 32 -24.32 32 -25 32 C-26.39201493 36.56879294 -26.39201493 36.56879294 -27.25 41.25 C-28.51171373 44.19399871 -31.18566402 44.80241022 -34 46 C-32.98044199 40.05257829 -31.28912536 35.22179814 -26.875 30.9375 C-21.83251687 26.00038219 -17.05101436 20.38066017 -14 14 C-13.0206121 12.97980427 -12.02104551 11.97850195 -11 11 C-10.34 10.01 -9.68 9.02 -9 8 C-8.0409375 7.7834375 -8.0409375 7.7834375 -7.0625 7.5625 C-4.24315672 6.7935882 -3.55890352 5.40921453 -2 3 C-1.34 2.01 -0.68 1.02 0 0 Z " fill="#4878AF" transform="translate(57,36)"/>
<path d="M0 0 C1.78515625 0.3046875 1.78515625 0.3046875 4.0625 0.875 C12.04057527 2.93396263 12.04057527 2.93396263 20 2 C20.1875 4.875 20.1875 4.875 20 8 C19.01 8.66 18.02 9.32 17 10 C17 9.34 17 8.68 17 8 C16.34 8 15.68 8 15 8 C14.67 8.66 14.34 9.32 14 10 C13.071875 9.71125 12.14375 9.4225 11.1875 9.125 C7.900407 8.19735412 4.59626206 7.4343617 1.25 6.75 C0.32703125 6.55921875 -0.5959375 6.3684375 -1.546875 6.171875 C-4.25843449 5.73065247 -4.25843449 5.73065247 -7 8 C-7 5.69 -7 3.38 -7 1 C-5.5459375 1.0309375 -5.5459375 1.0309375 -4.0625 1.0625 C-1.12534105 1.35618499 -1.12534105 1.35618499 0 0 Z " fill="#3987B2" transform="translate(209,156)"/>
<path d="M0 0 C4.20619732 2.10309866 5.78713226 3.82762082 8.6875 7.4375 C9.47511719 8.40558594 10.26273438 9.37367188 11.07421875 10.37109375 C13 13 13 13 14 16 C13.01 16 12.02 16 11 16 C10.34 15.34 9.68 14.68 9 14 C6.18490007 11.7226499 6.18490007 11.7226499 3 12 C2.01 11.67 1.02 11.34 0 11 C-0.33 11.66 -0.66 12.32 -1 13 C-1 12.34 -1 11.68 -1 11 C-2.11375 11.680625 -3.2275 12.36125 -4.375 13.0625 C-6.2734375 14.22265625 -6.2734375 14.22265625 -8 15 C-8.66 14.67 -9.32 14.34 -10 14 C-6.7 9.38 -3.4 4.76 0 0 Z " fill="#38C0D6" transform="translate(214,123)"/>
<path d="M0 0 C1.43931117 0.45261358 2.87638999 0.91232979 4.3125 1.375 C5.11300781 1.63023438 5.91351563 1.88546875 6.73828125 2.1484375 C9 3 9 3 12 5 C12.3125 8.5 12.3125 8.5 12 12 C11.34 12.66 10.68 13.32 10 14 C8.0625 13.625 8.0625 13.625 6 13 C5.01 13 4.02 13 3 13 C2.67 13.99 2.34 14.98 2 16 C0.13216954 10.51324804 -0.2358396 5.77807024 0 0 Z " fill="#4A81B2" transform="translate(130,108)"/>
<path d="M0 0 C0.66 0.33 1.32 0.66 2 1 C1.195625 1.763125 0.39125 2.52625 -0.4375 3.3125 C-3.16799024 5.79430898 -3.16799024 5.79430898 -4 9 C-4 8.34 -4 7.68 -4 7 C-5.65 7 -7.3 7 -9 7 C-9.33 8.65 -9.66 10.3 -10 12 C-10.99 12 -11.98 12 -13 12 C-13.66 12.66 -14.32 13.32 -15 14 C-16.98387708 15.03161608 -18.98276656 16.03523618 -21 17 C-21 15.68 -21 14.36 -21 13 C-21.33 12.01 -21.66 11.02 -22 10 C-20.71937515 8.2925002 -19.38232443 6.62626404 -18 5 C-17.67 4.01 -17.34 3.02 -17 2 C-15.948125 2.495 -15.948125 2.495 -14.875 3 C-11.58315607 4.14498919 -9.46408158 4.42417325 -6 4 C-2.67191761 2.11586085 -2.67191761 2.11586085 0 0 Z " fill="#5D56A3" transform="translate(171,134)"/>
<path d="M0 0 C-1.43643121 3.65353155 -3.05835031 4.93978166 -6.5 6.75 C-7.2940625 7.17796875 -8.088125 7.6059375 -8.90625 8.046875 C-11 9 -11 9 -13 9 C-13.33 9.66 -13.66 10.32 -14 11 C-14.99 11 -15.98 11 -17 11 C-17 11.66 -17 12.32 -17 13 C-18.66666667 13.66666667 -20.33333333 14.33333333 -22 15 C-22.804375 15.4125 -23.60875 15.825 -24.4375 16.25 C-27.85606241 17.25055485 -29.77975248 16.34801059 -33 15 C-31.66666667 14.33333333 -30.33333333 13.66666667 -29 13 C-27.989375 12.46375 -26.97875 11.9275 -25.9375 11.375 C-23 10 -23 10 -20 10 C-20 9.34 -20 8.68 -20 8 C-18.68 8 -17.36 8 -16 8 C-16 7.34 -16 6.68 -16 6 C-14.68 6 -13.36 6 -12 6 C-12 5.34 -12 4.68 -12 4 C-10.56988027 3.13353333 -9.13059381 2.28218171 -7.6875 1.4375 C-6.88699219 0.96183594 -6.08648437 0.48617188 -5.26171875 -0.00390625 C-3 -1 -3 -1 0 0 Z " fill="#7235A4" transform="translate(246,293)"/>
<path d="M0 0 C2.31 0.33 4.62 0.66 7 1 C7 1.66 7 2.32 7 3 C8.98 3.99 10.96 4.98 13 6 C13.33 4.68 13.66 3.36 14 2 C14.99 2.33 15.98 2.66 17 3 C17.94921875 5.06640625 17.94921875 5.06640625 18.6875 7.5625 C18.93886719 8.38878906 19.19023437 9.21507813 19.44921875 10.06640625 C19.63097656 10.70449219 19.81273437 11.34257813 20 12 C19.236875 12.144375 18.47375 12.28875 17.6875 12.4375 C14.91827092 12.9632594 14.91827092 12.9632594 12 14 C12 13.01 12 12.02 12 11 C10.35 11.66 8.7 12.32 7 13 C6.54625 11.88625 6.0925 10.7725 5.625 9.625 C4.27534014 6.03800992 4.27534014 6.03800992 2 4 C1.01 4.495 1.01 4.495 0 5 C-0.33 4.01 -0.66 3.02 -1 2 C-0.67 1.34 -0.34 0.68 0 0 Z " fill="#466DA7" transform="translate(273,63)"/>
<path d="M0 0 C5.53347338 0.05181155 10.3846076 2.24300446 15.4375 4.3125 C16.37207031 4.68632812 17.30664062 5.06015625 18.26953125 5.4453125 C18.98496094 5.73148438 19.70039063 6.01765625 20.4375 6.3125 C18.14449337 7.72277742 16.9004054 8.36224027 14.18359375 8.0703125 C13.42175781 7.86148438 12.65992188 7.65265625 11.875 7.4375 C9.19546263 6.72355918 7.24061662 6.3125 4.4375 6.3125 C4.4375 5.6525 4.4375 4.9925 4.4375 4.3125 C0.1197542 4.82047009 -3.59552114 5.50932779 -7.5625 7.3125 C-7.8925 10.6125 -8.2225 13.9125 -8.5625 17.3125 C-8.8925 17.3125 -9.2225 17.3125 -9.5625 17.3125 C-9.61699838 15.58369018 -9.65551688 13.85437288 -9.6875 12.125 C-9.71070313 11.16207031 -9.73390625 10.19914063 -9.7578125 9.20703125 C-9.55200441 6.1569553 -8.92503266 4.03756532 -7.5625 1.3125 C-5.13747759 0.09998879 -2.71056517 0.23776887 0 0 Z " fill="#3D99BD" transform="translate(210.5625,147.6875)"/>
<path d="M0 0 C3.87132028 0.57352893 6.08172796 2.48704352 9 5 C8.67 5.33 8.34 5.66 8 6 C8.66 6.66 9.32 7.32 10 8 C10.44730469 8.45117188 10.89460938 8.90234375 11.35546875 9.3671875 C12.59309806 10.5959976 13.84890638 11.80653952 15.11328125 13.0078125 C16.20189453 14.05582031 16.20189453 14.05582031 17.3125 15.125 C18.35857422 16.11886719 18.35857422 16.11886719 19.42578125 17.1328125 C21 19 21 19 21 22 C17.69693485 22 15.62778675 21.5668623 13.1484375 19.328125 C10.53624489 16.37134528 8.27136104 13.45549889 6.25 10.0625 C5.10815785 7.67638011 5.10815785 7.67638011 2 7 C0.25 5.125 0.25 5.125 -1 3 C-0.67 2.01 -0.34 1.02 0 0 Z " fill="#6F45A3" transform="translate(34,256)"/>
<path d="M0 0 C0.99 0 1.98 0 3 0 C4.08794502 4.38566071 4.12897314 8.65582765 4.09765625 13.14453125 C4.0962413 13.91431808 4.09482635 14.68410492 4.09336853 15.47721863 C4.08779606 17.92235288 4.07524871 20.36739368 4.0625 22.8125 C4.05748144 24.47591013 4.05291915 26.1393217 4.04882812 27.80273438 C4.03783566 31.86852528 4.0205901 35.93424683 4 40 C3.01 40 2.02 40 1 40 C0.87625 39.21625 0.7525 38.4325 0.625 37.625 C0.20882007 34.85942178 0.20882007 34.85942178 -2 33 C-1.34 32.34 -0.68 31.68 0 31 C1.02633836 27.30518191 1.08677844 23.81825157 1 20 C1 19.67 1 19.34 1 19 C0.92992376 17.58188804 0.85636808 16.16394758 0.78125 14.74609375 C0.71357422 13.46508789 0.71357422 13.46508789 0.64453125 12.15820312 C0.59683594 11.26037109 0.54914063 10.36253906 0.5 9.4375 C0.45230469 8.53580078 0.40460938 7.63410156 0.35546875 6.70507812 C0.23721274 4.47003961 0.11871244 2.23501431 0 0 Z M2 5 C3 7 3 7 3 7 Z M2 10 C2 12.31 2 14.62 2 17 C2.33 17 2.66 17 3 17 C3 14.69 3 12.38 3 10 C2.67 10 2.34 10 2 10 Z M2 30 C2 32.31 2 34.62 2 37 C2.33 37 2.66 37 3 37 C3 34.69 3 32.38 3 30 C2.67 30 2.34 30 2 30 Z " fill="#8342CA" transform="translate(316,137)"/>
<path d="M0 0 C0.99 0 1.98 0 3 0 C2.67 0.515625 2.34 1.03125 2 1.5625 C0.13075641 6.11878125 0.83163222 10.32652889 2 15 C11.57 15.33 21.14 15.66 31 16 C31 16.33 31 16.66 31 17 C19.45 17 7.9 17 -4 17 C-2.875 4.625 -2.875 4.625 0 0 Z " fill="#9B4DAF" transform="translate(135,244)"/>
<path d="M0 0 C0.81484863 0.0714624 1.62969727 0.1429248 2.46923828 0.21655273 C11.96151501 0.97990832 21.35883465 1.11985237 30.875 1.0625 C32.35286304 1.05746663 33.83072777 1.05290702 35.30859375 1.04882812 C38.87243195 1.03798718 42.43620447 1.02082779 46 1 C43.37011719 3.96777344 43.37011719 3.96777344 40.0390625 4.2578125 C38.34910156 4.19207031 38.34910156 4.19207031 36.625 4.125 C32.51586423 3.98330566 29.01267401 4.16680357 25 5 C18.89912354 4.85527118 12.90633606 3.43818585 7 2 C6.67 2.99 6.34 3.98 6 5 C4.68 4.34 3.36 3.68 2 3 C2 2.34 2 1.68 2 1 C1.34 0.67 0.68 0.34 0 0 Z " fill="#792696" transform="translate(132,297)"/>
<path d="M0 0 C-0.33 0.66 -0.66 1.32 -1 2 C-1.66 2 -2.32 2 -3 2 C-3.33 2.99 -3.66 3.98 -4 5 C-5.78515625 5.58984375 -5.78515625 5.58984375 -8.0625 5.9375 C-14.29248638 7.12984189 -19.63399981 9.29918385 -24 14 C-24.33 13.34 -24.66 12.68 -25 12 C-26.03125 12.495 -27.0625 12.99 -28.125 13.5 C-31.52451578 14.97473902 -34.27021549 15.27291106 -38 15 C-35.25660242 13.58310169 -32.50331382 12.37113407 -29.62109375 11.265625 C-16.95076179 6.34867027 -16.95076179 6.34867027 -4.99609375 -0.06640625 C-3 -1 -3 -1 0 0 Z " fill="#81459D" transform="translate(235,279)"/>
<path d="M0 0 C5.625 -0.25 5.625 -0.25 9 2 C9.66 1.67 10.32 1.34 11 1 C12 2 13 3 14 4 C15.2684375 5.2375 15.2684375 5.2375 16.5625 6.5 C19 9 19 9 21 12 C18.03 11.505 18.03 11.505 15 11 C15 10.34 15 9.68 15 9 C14.01 8.79375 13.02 8.5875 12 8.375 C7.28281787 7.05341728 3.62389448 4.22856054 0 1 C0 0.67 0 0.34 0 0 Z " fill="#B6284F" transform="translate(71,293)"/>
<path d="M0 0 C2.31 0 4.62 0 7 0 C6 2 6 2 4 4 C3.67 4.99 3.34 5.98 3 7 C-0.83408676 10.65575714 -3.78891146 12.6351911 -9 14 C-7.60701445 10.99868813 -5.96044932 8.48942591 -3.9375 5.875 C-1.76773805 3.06372737 -1.76773805 3.06372737 0 0 Z " fill="#4D80B4" transform="translate(62,32)"/>
<path d="M0 0 C1 3 1 3 -0.3125 5.6875 C-0.869375 6.450625 -1.42625 7.21375 -2 8 C-2.66 8 -3.32 8 -4 8 C-5.39201493 12.56879294 -5.39201493 12.56879294 -6.25 17.25 C-7.51171373 20.19399871 -10.18566402 20.80241022 -13 22 C-11.65390805 14.14779697 -8.58800943 9.58800943 -3 4 C-1.97186389 2.68824014 -0.95915568 1.3630107 0 0 Z " fill="#5673B4" transform="translate(36,60)"/>
<path d="M0 0 C1.20366211 0.00966797 1.20366211 0.00966797 2.43164062 0.01953125 C3.26501953 0.03628906 4.09839844 0.05304687 4.95703125 0.0703125 C6.22450195 0.08384766 6.22450195 0.08384766 7.51757812 0.09765625 C9.60168368 0.12120547 11.68564342 0.15707603 13.76953125 0.1953125 C12.77953125 0.6903125 12.77953125 0.6903125 11.76953125 1.1953125 C11.76953125 1.8553125 11.76953125 2.5153125 11.76953125 3.1953125 C11.17785156 3.16050781 10.58617187 3.12570312 9.9765625 3.08984375 C4.87694164 2.91514222 2.06190493 3.21449744 -2.23046875 6.1953125 C-4.79296875 7.0703125 -4.79296875 7.0703125 -7.23046875 7.1953125 C-9.54296875 5.7578125 -9.54296875 5.7578125 -11.23046875 4.1953125 C-10.33328125 3.7621875 -10.33328125 3.7621875 -9.41796875 3.3203125 C-2.88230924 -0.04088382 -2.88230924 -0.04088382 0 0 Z M-3.23046875 1.1953125 C-3.23046875 1.5253125 -3.23046875 1.8553125 -3.23046875 2.1953125 C-1.58046875 2.1953125 0.06953125 2.1953125 1.76953125 2.1953125 C1.76953125 1.8653125 1.76953125 1.5353125 1.76953125 1.1953125 C0.11953125 1.1953125 -1.53046875 1.1953125 -3.23046875 1.1953125 Z " fill="#5679B7" transform="translate(129.23046875,1.8046875)"/>
<path d="M0 0 C3.1021772 0.43286193 5.78863484 0.91152156 8.6875 2.125 C11.10200176 3.31682997 11.10200176 3.31682997 14 2 C14.66 1.34 15.32 0.68 16 0 C15.125 4.75 15.125 4.75 14 7 C13.0925 6.814375 12.185 6.62875 11.25 6.4375 C8.16526551 5.81126383 8.16526551 5.81126383 5.875 6.5625 C3.33325999 7.15557267 2.17263088 6.31909732 0 5 C-0.33 5.66 -0.66 6.32 -1 7 C-1.33 6.34 -1.66 5.68 -2 5 C-1.0625 2.375 -1.0625 2.375 0 0 Z " fill="#5062A5" transform="translate(207,195)"/>
<path d="M0 0 C3.875 1.75 3.875 1.75 5 4 C5.125 7.0625 5.125 7.0625 5 10 C4 11 4 11 0.9375 11.0625 C-0.031875 11.041875 -1.00125 11.02125 -2 11 C-2.25 3.375 -2.25 3.375 0 0 Z " fill="#37485D" transform="translate(120,101)"/>
<path d="M0 0 C0.33 0 0.66 0 1 0 C0.67 2.64 0.34 5.28 0 8 C-2.31 7.67 -4.62 7.34 -7 7 C-7 6.34 -7 5.68 -7 5 C-8.36125 5.7734375 -8.36125 5.7734375 -9.75 6.5625 C-13 8 -13 8 -15.375 7.6875 C-15.91125 7.460625 -16.4475 7.23375 -17 7 C-16.67 5.68 -16.34 4.36 -16 3 C-15.22914063 3.02320313 -14.45828125 3.04640625 -13.6640625 3.0703125 C-12.15972656 3.09738281 -12.15972656 3.09738281 -10.625 3.125 C-9.62726563 3.14820313 -8.62953125 3.17140625 -7.6015625 3.1953125 C-4.83737827 3.27216848 -4.83737827 3.27216848 -3 1 C-2.67 1.66 -2.34 2.32 -2 3 C-1.34 2.01 -0.68 1.02 0 0 Z " fill="#496BA7" transform="translate(225,184)"/>
<path d="M0 0 C0.66 0 1.32 0 2 0 C2.33 0.99 2.66 1.98 3 3 C2.34 3 1.68 3 1 3 C1 3.66 1 4.32 1 5 C0.01 5.495 0.01 5.495 -1 6 C-1.33 6.99 -1.66 7.98 -2 9 C-1.34 9.33 -0.68 9.66 0 10 C-0.99 10.66 -1.98 11.32 -3 12 C-3.639375 11.814375 -4.27875 11.62875 -4.9375 11.4375 C-5.9584375 11.2209375 -5.9584375 11.2209375 -7 11 C-8.34789347 11.98028616 -9.68212715 12.97971135 -11 14 C-11.99 13.67 -12.98 13.34 -14 13 C-13.44570312 12.52949219 -12.89140625 12.05898437 -12.3203125 11.57421875 C-11.59585938 10.95160156 -10.87140625 10.32898438 -10.125 9.6875 C-9.40570313 9.07261719 -8.68640625 8.45773438 -7.9453125 7.82421875 C-5.80820669 5.9587676 -5.80820669 5.9587676 -4 3 C-3.01 3 -2.02 3 -1 3 C-0.67 2.01 -0.34 1.02 0 0 Z " fill="#4265A6" transform="translate(198,180)"/>
<path d="M0 0 C0.33 0.66 0.66 1.32 1 2 C-5.78585086 11.75717017 -5.78585086 11.75717017 -12 13 C-13.34721283 13.63815344 -14.68747118 14.29325371 -16 15 C-16 14.01 -16 13.02 -16 12 C-13.76953125 9.84375 -13.76953125 9.84375 -10.8125 7.5 C-9.84957031 6.7265625 -8.88664063 5.953125 -7.89453125 5.15625 C-5.3351838 3.24969158 -2.76946391 1.57965766 0 0 Z " fill="#64328F" transform="translate(257,260)"/>
<path d="M0 0 C0.66 0.66 1.32 1.32 2 2 C0.02 4.97 -1.96 7.94 -4 11 C-5.32 10.67 -6.64 10.34 -8 10 C-7.67 9.34 -7.34 8.68 -7 8 C-7.66 7.34 -8.32 6.68 -9 6 C-9 5.01 -9 4.02 -9 3 C-7.8553125 3.0309375 -7.8553125 3.0309375 -6.6875 3.0625 C-3.89814214 3.12942841 -3.89814214 3.12942841 -1 2 C-0.67 1.34 -0.34 0.68 0 0 Z " fill="#564E9B" transform="translate(215,207)"/>
<path d="M0 0 C0.99 0.33 1.98 0.66 3 1 C4.44576815 9.24087846 3.30168453 16.83488792 2 25 C1.67 25 1.34 25 1 25 C0.05779874 19.47291389 -0.12116149 14.16241648 -0.0625 8.5625 C-0.05798828 7.73556641 -0.05347656 6.90863281 -0.04882812 6.05664062 C-0.03715811 4.03772854 -0.01922718 2.01885426 0 0 Z " fill="#7A74A2" transform="translate(0,163)"/>
<path d="M0 0 C-1.98 2.31 -3.96 4.62 -6 7 C-9.83736322 6.04065919 -10.59660228 5.76390737 -13 3 C-7.85083335 -0.11660087 -6.01448594 -1.17674725 0 0 Z " fill="#7249A0" transform="translate(170,155)"/>
<path d="M0 0 C2.73058469 1.04404709 4.1850125 2.66465669 6.125 4.8125 C5.135 5.4725 4.145 6.1325 3.125 6.8125 C1.805 6.1525 0.485 5.4925 -0.875 4.8125 C-1.205 5.4725 -1.535 6.1325 -1.875 6.8125 C-1.875 6.1525 -1.875 5.4925 -1.875 4.8125 C-2.98875 5.493125 -4.1025 6.17375 -5.25 6.875 C-7.1484375 8.03515625 -7.1484375 8.03515625 -8.875 8.8125 C-9.535 8.4825 -10.195 8.1525 -10.875 7.8125 C-10.215 6.8225 -9.555 5.8325 -8.875 4.8125 C-7.885 4.8125 -6.895 4.8125 -5.875 4.8125 C-5.441875 3.8534375 -5.441875 3.8534375 -5 2.875 C-3.63238309 0.36770233 -2.87723147 -0.28772315 0 0 Z " fill="#32B6CD" transform="translate(214.875,129.1875)"/>
<path d="M0 0 C2.66666667 1.33333333 5.33333333 2.66666667 8 4 C8.99 4.33 9.98 4.66 11 5 C12 6 13 7 14 8 C16.09989652 9.17574711 16.09989652 9.17574711 18 10 C17.01 10.99 16.02 11.98 15 13 C13.68 11.35 12.36 9.7 11 8 C10.01 8.33 9.02 8.66 8 9 C5.27982948 7.78061322 3.24865149 6.86135162 1 5 C0.0625 2.25 0.0625 2.25 0 0 Z " fill="#548DBF" transform="translate(233,18)"/>
<path d="M0 0 C2 1 2 1 3.25 2.9375 C4.37257337 7.52134127 3.13817474 11.49107699 2 16 C2.66 16 3.32 16 4 16 C4.33 17.32 4.66 18.64 5 20 C4.01 20 3.02 20 2 20 C0.69336204 15.83509149 -0.11451739 12.35166078 0 8 C-0.185625 7.13375 -0.37125 6.2675 -0.5625 5.375 C-1 3 -1 3 0 0 Z M1 9 C2 12 2 12 2 12 Z " fill="#7B5EA8" transform="translate(3,185)"/>
<path d="M0 0 C1.32 0 2.64 0 4 0 C4.61528766 5.07612318 2.61658349 7.82982006 0 12 C-0.66 12 -1.32 12 -2 12 C-2.33 13.65 -2.66 15.3 -3 17 C-3.66 17 -4.32 17 -5 17 C-4.71125 16.195625 -4.4225 15.39125 -4.125 14.5625 C-3.01414301 11.0447862 -2.20744515 7.56179959 -1.46484375 3.953125 C-1 2 -1 2 0 0 Z " fill="#5C71AF" transform="translate(17,85)"/>
<path d="M0 0 C8.91 0 17.82 0 27 0 C26.01 0.495 26.01 0.495 25 1 C25 1.66 25 2.32 25 3 C22.03 3 19.06 3 16 3 C16 2.34 16 1.68 16 1 C12.7 1 9.4 1 6 1 C5.67 1.66 5.34 2.32 5 3 C5 2.34 5 1.68 5 1 C4.34 1 3.68 1 3 1 C3 1.66 3 2.32 3 3 C1.68 3 0.36 3 -1 3 C-0.67 2.01 -0.34 1.02 0 0 Z " fill="#4F8AB2" transform="translate(146,1)"/>
<path d="M0 0 C1.98 1.32 3.96 2.64 6 4 C5.67 5.98 5.34 7.96 5 10 C2.525 9.01 2.525 9.01 0 8 C0 7.34 0 6.68 0 6 C-1.32 5.34 -2.64 4.68 -4 4 C-3.67 3.34 -3.34 2.68 -3 2 C-2.34 2 -1.68 2 -1 2 C-0.67 1.34 -0.34 0.68 0 0 Z " fill="#8F357E" transform="translate(59,278)"/>
<path d="M0 0 C0.80824219 0.19464844 1.61648437 0.38929688 2.44921875 0.58984375 C3.06410156 0.74582031 3.67898437 0.90179688 4.3125 1.0625 C4.3125 1.7225 4.3125 2.3825 4.3125 3.0625 C9.2625 5.0425 9.2625 5.0425 14.3125 7.0625 C10.90231018 8.19922994 10.14521596 7.91360129 6.875 6.75 C6.11316406 6.48574219 5.35132813 6.22148437 4.56640625 5.94921875 C2.3125 5.0625 2.3125 5.0625 0.21484375 3.95703125 C-1.78961166 2.84973572 -1.78961166 2.84973572 -4.6875 3.0625 C-5.0175 2.4025 -5.3475 1.7425 -5.6875 1.0625 C-6.3475 0.7325 -7.0075 0.4025 -7.6875 0.0625 C-4.39053895 -1.03648702 -3.28255097 -0.80874444 0 0 Z " fill="#5678C2" transform="translate(208.6875,6.9375)"/>
<path d="M0 0 C-0.33 0.33 -0.66 0.66 -1 1 C-1.23481693 3.18292774 -1.41363323 5.37203174 -1.5625 7.5625 C-1.64628906 8.76003906 -1.73007813 9.95757812 -1.81640625 11.19140625 C-1.87699219 12.11824219 -1.93757812 13.04507813 -2 14 C-2.33 14 -2.66 14 -3 14 C-3 10.7 -3 7.4 -3 4 C-4.98 4.99 -4.98 4.99 -7 6 C-7.99 6 -8.98 6 -10 6 C-10 5.34 -10 4.68 -10 4 C-10.66 3.67 -11.32 3.34 -12 3 C-10.3789897 2.30314502 -8.75303934 1.61777139 -7.125 0.9375 C-6.22007812 0.55464844 -5.31515625 0.17179687 -4.3828125 -0.22265625 C-2 -1 -2 -1 0 0 Z " fill="#CACED7" transform="translate(198,89)"/>
<path d="M0 0 C3.37991574 0.3557806 6.04288438 1.35715799 9 3 C8 5 8 5 4.9375 6.125 C3.4834375 6.558125 3.4834375 6.558125 2 7 C2 6.34 2 5.68 2 5 C1.01 5.33 0.02 5.66 -1 6 C-1.625 4.125 -1.625 4.125 -2 2 C-1.34 1.34 -0.68 0.68 0 0 Z " fill="#713493" transform="translate(89,281)"/>
<path d="M0 0 C0.99 0 1.98 0 3 0 C3.66 1.32 4.32 2.64 5 4 C5.33 4 5.66 4 6 4 C6 6.64 6 9.28 6 12 C5.01 12 4.02 12 3 12 C3 10.68 3 9.36 3 8 C2.01 8 1.02 8 0 8 C-1.125 2.25 -1.125 2.25 0 0 Z " fill="#5C68A6" transform="translate(312,125)"/>
<path d="M0 0 C2.31 0 4.62 0 7 0 C4.525 3.465 4.525 3.465 2 7 C1.67 6.34 1.34 5.68 1 5 C0.401875 5.515625 -0.19625 6.03125 -0.8125 6.5625 C-1.534375 7.036875 -2.25625 7.51125 -3 8 C-3.99 7.67 -4.98 7.34 -6 7 C-4.71034824 5.62437146 -3.37310707 4.29233607 -2 3 C-1.34 3 -0.68 3 0 3 C0 2.01 0 1.02 0 0 Z " fill="#3878A9" transform="translate(91,16)"/>
<path d="M0 0 C1.32 0 2.64 0 4 0 C4 0.66 4 1.32 4 2 C5.423125 2.12375 5.423125 2.12375 6.875 2.25 C11.88977467 2.93991766 16.38454926 5.00337644 21 7 C20.34 7.66 19.68 8.32 19 9 C12.22788048 6.9094278 5.99672394 4.81609706 0 1 C0 0.67 0 0.34 0 0 Z " fill="#DD0F19" transform="translate(94,306)"/>
<path d="M0 0 C0.66 0.33 1.32 0.66 2 1 C1.071875 2.36125 1.071875 2.36125 0.125 3.75 C-1.97453232 6.72776356 -1.97453232 6.72776356 -2.875 9.1875 C-4.62446424 12.00608127 -6.98883562 12.80808077 -10 14 C-10.66 13.67 -11.32 13.34 -12 13 C-10.75 10.5625 -10.75 10.5625 -9 8 C-7.67696283 7.6278958 -6.34262065 7.29369827 -5 7 C-3.32337286 5.15340529 -3.32337286 5.15340529 -2 3 C-1.34 2.01 -0.68 1.02 0 0 Z " fill="#5D7CBE" transform="translate(57,36)"/>
<path d="M0 0 C0.66 0.33 1.32 0.66 2 1 C1.34 2.65 0.68 4.3 0 6 C-0.99 6 -1.98 6 -3 6 C-3.33 7.32 -3.66 8.64 -4 10 C-5.98 9.34 -7.96 8.68 -10 8 C-7.63707344 5.47411298 -6.33537489 4.11179163 -3 3 C-1.33289654 1.50014391 -1.33289654 1.50014391 0 0 Z " fill="#568AC1" transform="translate(75,23)"/>
<path d="M0 0 C5.94 0 11.88 0 18 0 C18 0.99 18 1.98 18 3 C11.04746138 4.04350941 6.2370931 4.46505172 0 1 C0 0.67 0 0.34 0 0 Z " fill="#6B6CC2" transform="translate(176,2)"/>
<path d="M0 0 C-0.99 0.33 -1.98 0.66 -3 1 C-3.33 1.66 -3.66 2.32 -4 3 C-6.32156597 3.40729228 -8.6568787 3.74438677 -11 4 C-11.33 2.68 -11.66 1.36 -12 0 C-7.44729118 -2.48329572 -4.775353 -1.68541871 0 0 Z " fill="#A72965" transform="translate(216,310)"/>
<path d="M0 0 C1.32 0.33 2.64 0.66 4 1 C2.55873214 4.36295835 0.79407345 6.62927102 -2 9 C-2.99 9 -3.98 9 -5 9 C-4.67 7.35 -4.34 5.7 -4 4 C-3.01 3.67 -2.02 3.34 -1 3 C-0.67 2.01 -0.34 1.02 0 0 Z M-2 5 C-1 7 -1 7 -1 7 Z " fill="#A54D76" transform="translate(272,268)"/>
<path d="M0 0 C-2.40673887 4.69314079 -2.40673887 4.69314079 -4.8125 5.9375 C-7.83317909 6.02380512 -10.20491901 5.07991765 -13 4 C-11.66666667 3.33333333 -10.33333333 2.66666667 -9 2 C-7.989375 1.443125 -6.97875 0.88625 -5.9375 0.3125 C-3 -1 -3 -1 0 0 Z " fill="#872A92" transform="translate(226,304)"/>
<path d="M0 0 C5.88209918 0.33711636 10.95848296 0.63898864 16 4 C16.33 4.99 16.66 5.98 17 7 C10.98922864 5.36959185 4.98336072 3.72852643 -1 2 C-0.67 1.34 -0.34 0.68 0 0 Z " fill="#4E88B2" transform="translate(195,24)"/>
<path d="M0 0 C2.82837851 1.44868168 3.87617121 2.66255476 5.5625 5.3125 C6.5525 6.7975 6.5525 6.7975 7.5625 8.3125 C4.5925 7.8175 4.5925 7.8175 1.5625 7.3125 C1.5625 6.6525 1.5625 5.9925 1.5625 5.3125 C0.94375 5.003125 0.325 4.69375 -0.3125 4.375 C-1.6875 3.6875 -3.0625 3 -4.4375 2.3125 C-4.4375 1.6525 -4.4375 0.9925 -4.4375 0.3125 C-2.4375 -0.6875 -2.4375 -0.6875 0 0 Z " fill="#A52C62" transform="translate(84.4375,296.6875)"/>
<path d="M0 0 C0.99 0 1.98 0 3 0 C3.33 3.3 3.66 6.6 4 10 C3.34 10 2.68 10 2 10 C2.33 12.64 2.66 15.28 3 18 C2.34 18.33 1.68 18.66 1 19 C0.67 12.73 0.34 6.46 0 0 Z M2 5 C3 7 3 7 3 7 Z " fill="#8DA6B8" transform="translate(316,137)"/>
<path d="M0 0 C1.890625 0.21484375 1.890625 0.21484375 4 1 C5.046875 3.06640625 5.046875 3.06640625 5.75 5.5625 C5.99234375 6.38878906 6.2346875 7.21507813 6.484375 8.06640625 C6.65453125 8.70449219 6.8246875 9.34257813 7 10 C4.69 9.34 2.38 8.68 0 8 C0 5.36 0 2.72 0 0 Z " fill="#5376B1" transform="translate(286,65)"/>
<path d="M0 0 C0 0.66 0 1.32 0 2 C-2.24976352 2.64665663 -4.49981967 3.29229523 -6.75 3.9375 C-8.00296875 4.29714844 -9.2559375 4.65679688 -10.546875 5.02734375 C-13.02561719 5.72554149 -15.49660162 6.39943726 -18 7 C-18 6.34 -18 5.68 -18 5 C-16.75264433 4.3490741 -15.50198168 3.70448331 -14.25 3.0625 C-13.55390625 2.70285156 -12.8578125 2.34320312 -12.140625 1.97265625 C-8.01773637 0.09929992 -4.51512167 -0.1026164 0 0 Z " fill="#4381AE" transform="translate(125,24)"/>
<path d="M0 0 C-4.75 4.875 -4.75 4.875 -7 6 C-7.99 6 -8.98 6 -10 6 C-10.33 5.01 -10.66 4.02 -11 3 C-10.01 3 -9.02 3 -8 3 C-7.67 2.01 -7.34 1.02 -7 0 C-4.3333581 -1.33332095 -2.83319697 -0.67102033 0 0 Z " fill="#6D31AE" transform="translate(258,286)"/>
<path d="M0 0 C-0.33 0.66 -0.66 1.32 -1 2 C-1.66 2 -2.32 2 -3 2 C-3.33 2.99 -3.66 3.98 -4 5 C-5.98 5.33 -7.96 5.66 -10 6 C-10 5.01 -10 4.02 -10 3 C-3.375 -1.125 -3.375 -1.125 0 0 Z " fill="#6D3292" transform="translate(235,279)"/>
<path d="M0 0 C0 1.32 0 2.64 0 4 C-2.31 4 -4.62 4 -7 4 C-7 3.34 -7 2.68 -7 2 C-7.66 1.67 -8.32 1.34 -9 1 C-5.57367167 -0.61798838 -3.61944899 -1.34053666 0 0 Z " fill="#32AAC5" transform="translate(124,256)"/>
<path d="M0 0 C0.66 0.33 1.32 0.66 2 1 C0.11214091 2.49041507 -1.78418108 3.96705783 -3.6875 5.4375 C-4.48317383 6.06881836 -4.48317383 6.06881836 -5.29492188 6.71289062 C-8.4860575 9.16008052 -10.97547923 10.58933461 -15 11 C-12.05740921 7.85519325 -8.99939466 5.50769874 -5.375 3.1875 C-4.41335937 2.56230469 -3.45171875 1.93710938 -2.4609375 1.29296875 C-1.64882812 0.86628906 -0.83671875 0.43960938 0 0 Z " fill="#5F6FAD" transform="translate(181,195)"/>
<path d="M0 0 C0.99 0.66 1.98 1.32 3 2 C3 3.32 3 4.64 3 6 C3.99 6 4.98 6 6 6 C6 6.66 6 7.32 6 8 C-3.59453303 5.10933941 -3.59453303 5.10933941 -7 2 C-6.21625 2.04125 -5.4325 2.0825 -4.625 2.125 C-1.83883881 2.28728734 -1.83883881 2.28728734 0 0 Z " fill="#5388B3" transform="translate(219,29)"/>
<path d="M0 0 C1.67542976 0.28604898 3.34385343 0.61781233 5 1 C5 1.99 5 2.98 5 4 C2 6 2 6 -0.1875 5.625 C-0.785625 5.41875 -1.38375 5.2125 -2 5 C-1.125 1.125 -1.125 1.125 0 0 Z " fill="#792496" transform="translate(163,253)"/>
<path d="M0 0 C0.66 0.33 1.32 0.66 2 1 C0.60344703 4.49873271 -0.71260484 5.70891831 -4.125 7.25 C-5.21167969 7.75273437 -5.21167969 7.75273437 -6.3203125 8.265625 C-7.15175781 8.62914062 -7.15175781 8.62914062 -8 9 C-8 8.01 -8 7.02 -8 6 C-6.25 4.39453125 -6.25 4.39453125 -4 2.8125 C-3.2575 2.28269531 -2.515 1.75289063 -1.75 1.20703125 C-1.1725 0.80871094 -0.595 0.41039062 0 0 Z " fill="#6D3894" transform="translate(249,266)"/>
<path d="M0 0 C0.66 0.99 1.32 1.98 2 3 C1 6 1 6 -2.0625 7.6875 C-3.031875 8.120625 -4.00125 8.55375 -5 9 C-4.5206753 4.68607774 -3.2542015 2.83430453 0 0 Z " fill="#4A70A5" transform="translate(28,73)"/>
<path d="M0 0 C1.32 0 2.64 0 4 0 C3 2 3 2 1 4 C0.67 4.99 0.34 5.98 0 7 C-1.62332967 8.38576923 -3.28724465 9.72641268 -5 11 C-4.46949266 6.49068763 -2.8595705 3.51318661 0 0 Z " fill="#3B75A9" transform="translate(65,32)"/>
<path d="M0 0 C1 3 1 3 -0.125 5.375 C-2.17042131 8.23858983 -4.44693946 10.58494274 -7 13 C-7.66 12.67 -8.32 12.34 -9 12 C-6.03 8.04 -3.06 4.08 0 0 Z " fill="#3FB3CC" transform="translate(201,140)"/>
<path d="M0 0 C2.56687367 3.8503105 1.83288724 5.58569763 1 10 C0.67 9.34 0.34 8.68 0 8 C-2.01669827 6.86649466 -2.01669827 6.86649466 -4 6 C-2.25 1.125 -2.25 1.125 0 0 Z " fill="#6D71AA" transform="translate(313,114)"/>
<path d="M0 0 C5 6.36363636 5 6.36363636 5 11 C5.99 11 6.98 11 8 11 C7.67 12.32 7.34 13.64 7 15 C6.34 15 5.68 15 5 15 C2.66126519 11.72577126 1.59280978 8.95206521 1 5 C0.814375 4.071875 0.62875 3.14375 0.4375 2.1875 C0.293125 1.465625 0.14875 0.74375 0 0 Z " fill="#5A70AA" transform="translate(299,85)"/>
<path d="M0 0 C5.8022175 -0.36263859 9.63999211 0.74315457 15 3 C11.42619658 4.19126781 9.49116698 3.7349445 5.8125 3.0625 C4.72582031 2.86785156 3.63914063 2.67320313 2.51953125 2.47265625 C1.68808594 2.31667969 0.85664063 2.16070313 0 2 C0 1.34 0 0.68 0 0 Z " fill="#548CB5" transform="translate(179,21)"/>
<path d="M0 0 C2.62187494 1.04874998 3.79371361 1.64931313 5.25 4.125 C5.4975 4.74375 5.745 5.3625 6 6 C4 6 2 6 0 6 C-0.38218767 4.34385343 -0.71395102 2.67542976 -1 1 C-0.67 0.67 -0.34 0.34 0 0 Z " fill="#7E3484" transform="translate(49,271)"/>
<path d="M0 0 C2.9425963 0.30652045 5.34542308 0.67271154 8 2 C8.625 4.0625 8.625 4.0625 9 6 C8.29875 5.71125 7.5975 5.4225 6.875 5.125 C3.94547497 3.97866412 0.99078347 2.97374346 -2 2 C-1.34 1.34 -0.68 0.68 0 0 Z " fill="#DCDEE4" transform="translate(147,97)"/>
<path d="M0 0 C0.66 0 1.32 0 2 0 C2 0.66 2 1.32 2 2 C3.32 2.66 4.64 3.32 6 4 C6 5.65 6 7.3 6 9 C3.69 7.35 1.38 5.7 -1 4 C-0.67 2.68 -0.34 1.36 0 0 Z " fill="#5A76BC" transform="translate(266,41)"/>
<path d="M0 0 C0.98613281 0.20882813 1.97226563 0.41765625 2.98828125 0.6328125 C3.98214844 0.83648437 4.97601563 1.04015625 6 1.25 C6.75925781 1.41757812 7.51851562 1.58515625 8.30078125 1.7578125 C8.30078125 2.4178125 8.30078125 3.0778125 8.30078125 3.7578125 C3.08098997 3.9378053 -0.77184856 3.72876058 -5.69921875 1.7578125 C-2.69921875 -0.2421875 -2.69921875 -0.2421875 0 0 Z " fill="#F20509" transform="translate(123.69921875,314.2421875)"/>
<path d="M0 0 C4.67105792 1.55701931 8.08705685 4.08447373 12 7 C9 8 9 8 7 7.125 C6.34 6.75375 5.68 6.3825 5 6 C4.01 5.67 3.02 5.34 2 5 C0.8125 2.4375 0.8125 2.4375 0 0 Z " fill="#7B4BA0" transform="translate(63,285)"/>
<path d="M0 0 C0.66 0.33 1.32 0.66 2 1 C-1.3 3.97 -4.6 6.94 -8 10 C-8.66 9.34 -9.32 8.68 -10 8 C-5.25 4 -5.25 4 -3 4 C-2.67 3.01 -2.34 2.02 -2 1 C-1.34 0.67 -0.68 0.34 0 0 Z " fill="#8A3AA3" transform="translate(179,247)"/>
<path d="M0 0 C0.66 0 1.32 0 2 0 C2 3.63 2 7.26 2 11 C1.01 10.67 0.02 10.34 -1 10 C-1.125 2.25 -1.125 2.25 0 0 Z " fill="#817297" transform="translate(1,147)"/>
<path d="M0 0 C3.16115776 1.36983503 3.9927092 1.9890638 6 5 C5.01 5.99 4.02 6.98 3 8 C0.37613513 4.93882432 0 4.26826873 0 0 Z " fill="#6A3A94" transform="translate(44,266)"/>
<path d="M0 0 C0.66 0.33 1.32 0.66 2 1 C1.67 3.97 1.34 6.94 1 10 C1.66 10 2.32 10 3 10 C2.67 10.99 2.34 11.98 2 13 C1.34 13 0.68 13 0 13 C-0.12375 12.21625 -0.2475 11.4325 -0.375 10.625 C-0.79117993 7.85942178 -0.79117993 7.85942178 -3 6 C-2.34 5.34 -1.68 4.68 -1 4 C-0.3574765 1.93125966 -0.3574765 1.93125966 0 0 Z " fill="#8592B3" transform="translate(317,164)"/>
<path d="M0 0 C4.95 0.99 4.95 0.99 10 2 C9.67 2.99 9.34 3.98 9 5 C5.26512223 4.5020163 3.18762365 4.12508244 0 2 C0 1.34 0 0.68 0 0 Z " fill="#EFF0F2" transform="translate(155,100)"/>
<path d="M0 0 C0.33 1.32 0.66 2.64 1 4 C-0.25942386 5.19959375 -1.53295286 6.38439443 -2.8125 7.5625 C-3.87404297 8.55443359 -3.87404297 8.55443359 -4.95703125 9.56640625 C-5.63121094 10.03949219 -6.30539063 10.51257813 -7 11 C-7.99 10.67 -8.98 10.34 -10 10 C-9.44570312 9.52949219 -8.89140625 9.05898437 -8.3203125 8.57421875 C-7.59585938 7.95160156 -6.87140625 7.32898438 -6.125 6.6875 C-5.40570313 6.07261719 -4.68640625 5.45773438 -3.9453125 4.82421875 C-1.80820669 2.9587676 -1.80820669 2.9587676 0 0 Z " fill="#5578B0" transform="translate(194,183)"/>
<path d="M0 0 C0.66 0.66 1.32 1.32 2 2 C1.60348083 3.31872662 1.18201309 4.62997101 0.75 5.9375 C0.40195313 7.03384766 0.40195313 7.03384766 0.046875 8.15234375 C-1 10 -1 10 -3.109375 10.75390625 C-4.04523438 10.87572266 -4.04523438 10.87572266 -5 11 C-3.77472971 6.94718288 -2.30119506 3.55639236 0 0 Z " fill="#8249A2" transform="translate(142,229)"/>
<path d="M0 0 C2 1 2 1 3.1875 3.25 C4.08937081 6.30248582 3.86361585 7.97734454 3 11 C0.86466828 8.40046573 -0.56459104 6.37441946 -1 3 C-0.67 2.01 -0.34 1.02 0 0 Z " fill="#6F50C6" transform="translate(17,227)"/>
<path d="M0 0 C0.66 0.33 1.32 0.66 2 1 C-1.3 3.64 -4.6 6.28 -8 9 C-8 8.01 -8 7.02 -8 6 C-7.360625 5.731875 -6.72125 5.46375 -6.0625 5.1875 C-3.66868314 4.11332248 -3.66868314 4.11332248 -3 1 C-2.01 0.67 -1.02 0.34 0 0 Z " fill="#4578AB" transform="translate(77,46)"/>
<path d="M0 0 C0.66 0.33 1.32 0.66 2 1 C1.195625 1.763125 0.39125 2.52625 -0.4375 3.3125 C-3.16799024 5.79430898 -3.16799024 5.79430898 -4 9 C-4 8.34 -4 7.68 -4 7 C-6.97 6.505 -6.97 6.505 -10 6 C-9.46375 5.7525 -8.9275 5.505 -8.375 5.25 C-5.43575748 3.70303025 -2.74245592 1.86985631 0 0 Z " fill="#665FA6" transform="translate(171,134)"/>
<path d="M0 0 C2.31 1.65 4.62 3.3 7 5 C6.67 5.66 6.34 6.32 6 7 C2.34683329 5.75023244 1.21934164 5.32901247 -1 2 C-0.67 1.34 -0.34 0.68 0 0 Z " fill="#703796" transform="translate(68,265)"/>
<path d="M0 0 C0.66 0.66 1.32 1.32 2 2 C1.071875 2.680625 1.071875 2.680625 0.125 3.375 C-2.05919833 4.97108919 -2.05919833 4.97108919 -4 7 C-6.125 6.625 -6.125 6.625 -8 6 C-6.68 5.67 -5.36 5.34 -4 5 C-4.33 4.01 -4.66 3.02 -5 2 C-3.35 1.34 -1.7 0.68 0 0 Z " fill="#6E7FB0" transform="translate(281,261)"/>
<path d="M0 0 C0.66 0 1.32 0 2 0 C1.67 3.96 1.34 7.92 1 12 C0.67 12 0.34 12 0 12 C0 10.02 0 8.04 0 6 C-0.66 6 -1.32 6 -2 6 C-2 4.35 -2 2.7 -2 1 C-1.34 1.66 -0.68 2.32 0 3 C0 2.01 0 1.02 0 0 Z " fill="#9B4D82" transform="translate(317,178)"/>
<path d="M0 0 C5.27749285 0.53851968 9.25645564 1.77343836 14 4 C10.57809319 5.1406356 9.73829769 4.83489425 6.4375 3.6875 C5.65246094 3.42324219 4.86742187 3.15898437 4.05859375 2.88671875 C2 2 2 2 0 0 Z " fill="#5386B0" transform="translate(209,10)"/>
<path d="M0 0 C1.65 0.33 3.3 0.66 5 1 C5 1.66 5 2.32 5 3 C4.34 3 3.68 3 3 3 C3 3.66 3 4.32 3 5 C1.68 5 0.36 5 -1 5 C-0.67 3.35 -0.34 1.7 0 0 Z " fill="#7127C2" transform="translate(226,301)"/>
<path d="M0 0 C0.66 0 1.32 0 2 0 C2 0.66 2 1.32 2 2 C2.66 2 3.32 2 4 2 C3.67 2.99 3.34 3.98 3 5 C0.625 4.6875 0.625 4.6875 -2 4 C-2.66 3.01 -3.32 2.02 -4 1 C-2.68 1.33 -1.36 1.66 0 2 C0 1.34 0 0.68 0 0 Z " fill="#6B50A0" transform="translate(55,276)"/>
<path d="M0 0 C2.62386487 3.06117568 3 3.73173127 3 8 C1.35 8 -0.3 8 -2 8 C-1.34 5.36 -0.68 2.72 0 0 Z " fill="#32C4D4" transform="translate(90,252)"/>
<path d="M0 0 C-1.98 0.99 -3.96 1.98 -6 3 C-6 2.34 -6 1.68 -6 1 C-8.31 1.33 -10.62 1.66 -13 2 C-8.7920942 -0.80527053 -4.85771358 -1.68151624 0 0 Z " fill="#57CCDD" transform="translate(169,198)"/>
<path d="M0 0 C-0.33 3.96 -0.66 7.92 -1 12 C-1.33 12 -1.66 12 -2 12 C-2.33 8.37 -2.66 4.74 -3 1 C-1 0 -1 0 0 0 Z " fill="#975F96" transform="translate(3,176)"/>
<path d="M0 0 C0.99 0.33 1.98 0.66 3 1 C2.43628586 4.26954202 1.50037734 5.82575883 -1 8 C-1.04241723 5.66705225 -1.04092937 3.33297433 -1 1 C-0.67 0.67 -0.34 0.34 0 0 Z " fill="#172A41" transform="translate(120,101)"/>
<path d="M0 0 C1.9375 0.75 1.9375 0.75 4 2 C4.75 4.125 4.75 4.125 5 6 C2 6 2 6 0.3125 4.5 C-0.120625 4.005 -0.55375 3.51 -1 3 C-0.67 2.01 -0.34 1.02 0 0 Z " fill="#537AB2" transform="translate(251,29)"/>
<path d="M0 0 C1.65 0 3.3 0 5 0 C5.33 0.99 5.66 1.98 6 3 C4.68 3.99 3.36 4.98 2 6 C0 2.25 0 2.25 0 0 Z " fill="#367BAA" transform="translate(111,18)"/>
<path d="M0 0 C-0.66 1.32 -1.32 2.64 -2 4 C-2.66 4 -3.32 4 -4 4 C-4.33 4.66 -4.66 5.32 -5 6 C-5.99 5.34 -6.98 4.68 -8 4 C-3.375 0 -3.375 0 0 0 Z " fill="#357BAB" transform="translate(113,9)"/>
<path d="M0 0 C2.31 0.33 4.62 0.66 7 1 C6.0409375 1.433125 6.0409375 1.433125 5.0625 1.875 C2.84793921 2.82823451 2.84793921 2.82823451 2 5 C1.34 4.34 0.68 3.68 0 3 C0 2.01 0 1.02 0 0 Z " fill="#7B2D97" transform="translate(230,299)"/>
<path d="M0 0 C0.66 0.66 1.32 1.32 2 2 C0.68 4.31 -0.64 6.62 -2 9 C-2.33 9 -2.66 9 -3 9 C-3 6.69 -3 4.38 -3 2 C-2.34 2 -1.68 2 -1 2 C-0.67 1.34 -0.34 0.68 0 0 Z " fill="#5D5B9F" transform="translate(215,207)"/>
<path d="M0 0 C0.99 0 1.98 0 3 0 C3 2.64 3 5.28 3 8 C2.01 8 1.02 8 0 8 C-1.125 2.25 -1.125 2.25 0 0 Z " fill="#7B6BC2" transform="translate(315,129)"/>
<path d="M0 0 C1.98 0.66 3.96 1.32 6 2 C5.360625 2.226875 4.72125 2.45375 4.0625 2.6875 C1.72806339 3.85250896 1.72806339 3.85250896 1.25 6.625 C1.1675 7.40875 1.085 8.1925 1 9 C0.67 9 0.34 9 0 9 C0 6.03 0 3.06 0 0 Z " fill="#5893B9" transform="translate(130,108)"/>
<path d="M0 0 C0.99 0.33 1.98 0.66 3 1 C3 2.98 3 4.96 3 7 C1.68 6.34 0.36 5.68 -1 5 C-0.67 3.35 -0.34 1.7 0 0 Z " fill="#7C5996" transform="translate(42,263)"/>
<path d="M0 0 C0.66 0.66 1.32 1.32 2 2 C0.71034824 3.37562854 -0.62689293 4.70766393 -2 6 C-2.66 6 -3.32 6 -4 6 C-4 6.99 -4 7.98 -4 9 C-4.66 8.67 -5.32 8.34 -6 8 C-4.55746343 4.63408134 -2.66735273 2.48952921 0 0 Z " fill="#6B4197" transform="translate(265,250)"/>
<path d="M0 0 C-3.42346555 3.14958831 -6.44262737 3.56179109 -11 4 C-3.77464789 -1.88732394 -3.77464789 -1.88732394 0 0 Z " fill="#49C6D9" transform="translate(147,203)"/>
<path d="M0 0 C1.32 0.33 2.64 0.66 4 1 C3.67 2.98 3.34 4.96 3 7 C2.01 7.33 1.02 7.66 0 8 C0 5.36 0 2.72 0 0 Z " fill="#6872A9" transform="translate(7,108)"/>
<path d="M0 0 C0.66 0.99 1.32 1.98 2 3 C1.125 6.1875 1.125 6.1875 0 9 C-1.4606285 6.35261084 -2 5.10551666 -2 2 C-1.34 1.34 -0.68 0.68 0 0 Z " fill="#5167A2" transform="translate(29,105)"/>
<path d="M0 0 C0.33 0.66 0.66 1.32 1 2 C1.66 2 2.32 2 3 2 C3.66 3.65 4.32 5.3 5 7 C4.01 7 3.02 7 2 7 C1.01 5.02 0.02 3.04 -1 1 C-0.67 0.67 -0.34 0.34 0 0 Z " fill="#5274AC" transform="translate(275,80)"/>
<path d="M0 0 C1.875 0.25 1.875 0.25 4 1 C5.25 3.0625 5.25 3.0625 6 5 C5.01 5.66 4.02 6.32 3 7 C0 2.25 0 2.25 0 0 Z " fill="#5870B7" transform="translate(278,55)"/>
<path d="M0 0 C3 1.5 3 1.5 6 3 C3.525 4.485 3.525 4.485 1 6 C0.01 4.35 -0.98 2.7 -2 1 C-1.34 0.67 -0.68 0.34 0 0 Z " fill="#5296B8" transform="translate(225,14)"/>
<path d="M0 0 C2.29633824 3.44450737 2.54016485 5.93812283 3 10 C2.01 10.33 1.02 10.66 0 11 C0 7.37 0 3.74 0 0 Z " fill="#776EAD" transform="translate(5,114)"/>
<path d="M0 0 C0.33 0 0.66 0 1 0 C2.23076923 6.4 2.23076923 6.4 1.0625 9.4375 C0.711875 9.953125 0.36125 10.46875 0 11 C-0.66 11 -1.32 11 -2 11 C-1.34 7.37 -0.68 3.74 0 0 Z " fill="#716FAD" transform="translate(183,113)"/>
<path d="M0 0 C0.6875 1.6875 0.6875 1.6875 1 4 C-0.3125 6.75 -0.3125 6.75 -2 9 C-2.66 9 -3.32 9 -4 9 C-3.67 7.68 -3.34 6.36 -3 5 C-2.34 5 -1.68 5 -1 5 C-0.67 3.35 -0.34 1.7 0 0 Z " fill="#4D66A3" transform="translate(15,97)"/>
<path d="M0 0 C0.66 0 1.32 0 2 0 C2 1.65 2 3.3 2 5 C0.02 5.66 -1.96 6.32 -4 7 C-2.79618552 4.50638429 -1.54571278 2.31856917 0 0 Z " fill="#3874A8" transform="translate(57,39)"/>
<path d="M0 0 C0.99 0 1.98 0 3 0 C3.33 0.99 3.66 1.98 4 3 C2.1875 4.0625 2.1875 4.0625 0 5 C-0.99 4.67 -1.98 4.34 -3 4 C-1.6875 2 -1.6875 2 0 0 Z " fill="#6E3A99" transform="translate(264,275)"/>
<path d="M0 0 C1.32 0 2.64 0 4 0 C3.67 2.31 3.34 4.62 3 7 C2.34 6.67 1.68 6.34 1 6 C0.375 2.9375 0.375 2.9375 0 0 Z " fill="#9B7DA6" transform="translate(312,195)"/>
<path d="M0 0 C1.98 0 3.96 0 6 0 C6.66 1.32 7.32 2.64 8 4 C5.64828869 3.40138258 3.3140622 2.73075648 1 2 C0.67 1.34 0.34 0.68 0 0 Z " fill="#4E8BB2" transform="translate(176,2)"/>
<path d="M0 0 C2.97 0 5.94 0 9 0 C9 0.33 9 0.66 9 1 C6.03 1 3.06 1 0 1 C0 0.67 0 0.34 0 0 Z " fill="#6924EF" transform="translate(173,0)"/>
<path d="M0 0 C2.97 0 5.94 0 9 0 C9 0.33 9 0.66 9 1 C6.03 1 3.06 1 0 1 C0 0.67 0 0.34 0 0 Z " fill="#6710E2" transform="translate(137,0)"/>
<path d="M0 0 C2.64 0 5.28 0 8 0 C8 0.33 8 0.66 8 1 C5.36 1 2.72 1 0 1 C0 0.67 0 0.34 0 0 Z " fill="#A54152" transform="translate(173,319)"/>
<path d="M0 0 C0.33 0 0.66 0 1 0 C1 1.98 1 3.96 1 6 C0.67 6 0.34 6 0 6 C0 4.02 0 2.04 0 0 Z " fill="#810CBF" transform="translate(3,121)"/>
<path d="M0 0 C1.65 0 3.3 0 5 0 C5 0.33 5 0.66 5 1 C3.35 1 1.7 1 0 1 C0 0.67 0 0.34 0 0 Z " fill="#576F97" transform="translate(182,1)"/>
<path d="M0 0 C1.65 0 3.3 0 5 0 C5 0.33 5 0.66 5 1 C3.35 1 1.7 1 0 1 C0 0.67 0 0.34 0 0 Z " fill="#5993AE" transform="translate(132,1)"/>
<path d="M0 0 C1 4 1 4 1 4 Z " fill="#5B389F" transform="translate(316,125)"/>
<path d="M0 0 C4 1 4 1 4 1 Z " fill="#6125BF" transform="translate(197,4)"/>
<path d="" fill="#5D32AA" transform="translate(0,0)"/>
<path d="" fill="#6519D4" transform="translate(0,0)"/>
<path d="" fill="#5987A6" transform="translate(0,0)"/>
<path d="" fill="#616ED1" transform="translate(0,0)"/>
<path d="" fill="#6519D4" transform="translate(0,0)"/>
<path d="M0 0 C3 1 3 1 3 1 Z " fill="#616ED1" transform="translate(218,11)"/>
<path d="M0 0 C3 1 3 1 3 1 Z " fill="#5D32AA" transform="translate(108,7)"/>
<path d="M0 0 C3 1 3 1 3 1 Z " fill="#616ED1" transform="translate(201,5)"/>
<path d="M0 0 C3 1 3 1 3 1 Z " fill="#5D32AA" transform="translate(194,3)"/>
<path d="M0 0 C2 1 2 1 2 1 Z " fill="#554B80" transform="translate(92,305)"/>
<path d="M0 0 C2 1 2 1 2 1 Z " fill="#FF0000" transform="translate(69,292)"/>
<path d="" fill="#6D00FF" transform="translate(0,0)"/>
<path d="" fill="#6125BF" transform="translate(0,0)"/>
<path d="" fill="#A56EC8" transform="translate(0,0)"/>
<path d="" fill="#5D6EED" transform="translate(0,0)"/>
<path d="" fill="#AA2540" transform="translate(0,0)"/>
<path d="" fill="#6D00FF" transform="translate(0,0)"/>
<path d="" fill="#6125BF" transform="translate(0,0)"/>
<path d="" fill="#6125BF" transform="translate(0,0)"/>
<path d="" fill="#5BA5BA" transform="translate(0,0)"/>
<path d="" fill="#6125BF" transform="translate(0,0)"/>
<path d="" fill="#6125BF" transform="translate(0,0)"/>
<path d="" fill="#6125BF" transform="translate(0,0)"/>
<path d="" fill="#677FF9" transform="translate(0,0)"/>
<path d="" fill="#6125BF" transform="translate(0,0)"/>
<path d="" fill="#6D00FF" transform="translate(0,0)"/>
<path d="" fill="#6125BF" transform="translate(0,0)"/>
<path d="" fill="#677FF9" transform="translate(0,0)"/>
<path d="" fill="#6125BF" transform="translate(0,0)"/>
<path d="" fill="#5BA5BA" transform="translate(0,0)"/>
<path d="" fill="#677FF9" transform="translate(0,0)"/>
<path d="" fill="#677FF9" transform="translate(0,0)"/>
<path d="" fill="#61FFF4" transform="translate(0,0)"/>
<path d="" fill="#5BA5BA" transform="translate(0,0)"/>
<path d="" fill="#6D00FF" transform="translate(0,0)"/>
<path d="" fill="#6125BF" transform="translate(0,0)"/>
<path d="" fill="#4F3DFB" transform="translate(0,0)"/>
<path d="" fill="#677FF9" transform="translate(0,0)"/>
<path d="M0 0 C2 1 2 1 2 1 Z " fill="#5BA5BA" transform="translate(237,20)"/>
<path d="M0 0 C2 1 2 1 2 1 Z " fill="#5BA5BA" transform="translate(80,20)"/>
<path d="M0 0 C2 1 2 1 2 1 Z " fill="#5BA5BA" transform="translate(235,19)"/>
<path d="M0 0 C2 1 2 1 2 1 Z " fill="#677FF9" transform="translate(82,19)"/>
<path d="M0 0 C2 1 2 1 2 1 Z " fill="#5BA5BA" transform="translate(223,13)"/>
<path d="M0 0 C2 1 2 1 2 1 Z " fill="#6125BF" transform="translate(94,13)"/>
<path d="M0 0 C2 1 2 1 2 1 Z " fill="#6125BF" transform="translate(221,12)"/>
<path d="M0 0 C2 1 2 1 2 1 Z " fill="#554B80" transform="translate(96,12)"/>
<path d="M0 0 C2 1 2 1 2 1 Z " fill="#554B80" transform="translate(216,10)"/>
<path d="M0 0 C2 1 2 1 2 1 Z " fill="#6125BF" transform="translate(213,9)"/>
<path d="M0 0 C2 1 2 1 2 1 Z " fill="#317BF8" transform="translate(106,8)"/>
<path d="" fill="#FF0000" transform="translate(0,0)"/>
<path d="" fill="#6D00FF" transform="translate(0,0)"/>
<path d="" fill="#317BF8" transform="translate(0,0)"/>
<path d="" fill="#554B80" transform="translate(0,0)"/>
<path d="" fill="#554B80" transform="translate(0,0)"/>
<path d="" fill="#554B80" transform="translate(0,0)"/>
<path d="" fill="#554B80" transform="translate(0,0)"/>
<path d="" fill="#554B80" transform="translate(0,0)"/>
<path d="" fill="#6D00FF" transform="translate(0,0)"/>
<path d="" fill="#554B80" transform="translate(0,0)"/>
<path d="" fill="#554B80" transform="translate(0,0)"/>
<path d="" fill="#6D00FF" transform="translate(0,0)"/>
<path d="" fill="#6D00FF" transform="translate(0,0)"/>
<path d="" fill="#6D00FF" transform="translate(0,0)"/>
<path d="" fill="#DDDC92" transform="translate(0,0)"/>
<path d="" fill="#554B80" transform="translate(0,0)"/>
<path d="" fill="#554B80" transform="translate(0,0)"/>
<path d="" fill="#554B80" transform="translate(0,0)"/>
<path d="" fill="#554B80" transform="translate(0,0)"/>
<path d="" fill="#554B80" transform="translate(0,0)"/>
<path d="" fill="#61FFF4" transform="translate(0,0)"/>
<path d="" fill="#317BF8" transform="translate(0,0)"/>
<path d="" fill="#554B80" transform="translate(0,0)"/>
<path d="" fill="#554B80" transform="translate(0,0)"/>
<path d="" fill="#554B80" transform="translate(0,0)"/>
<path d="" fill="#6D00FF" transform="translate(0,0)"/>
<path d="" fill="#61FFF4" transform="translate(0,0)"/>
<path d="" fill="#554B80" transform="translate(0,0)"/>
<path d="" fill="#554B80" transform="translate(0,0)"/>
<path d="" fill="#554B80" transform="translate(0,0)"/>
<path d="" fill="#554B80" transform="translate(0,0)"/>
<path d="" fill="#554B80" transform="translate(0,0)"/>
<path d="" fill="#6D00FF" transform="translate(0,0)"/>
<path d="" fill="#554B80" transform="translate(0,0)"/>
<path d="" fill="#554B80" transform="translate(0,0)"/>
<path d="" fill="#317BF8" transform="translate(0,0)"/>
<path d="" fill="#6D00FF" transform="translate(0,0)"/>
<path d="" fill="#554B80" transform="translate(0,0)"/>
<path d="" fill="#554B80" transform="translate(0,0)"/>
<path d="" fill="#554B80" transform="translate(0,0)"/>
<path d="" fill="#317BF8" transform="translate(0,0)"/>
<path d="" fill="#554B80" transform="translate(0,0)"/>
<path d="" fill="#554B80" transform="translate(0,0)"/>
<path d="" fill="#6D00FF" transform="translate(0,0)"/>
<path d="" fill="#61FFF4" transform="translate(0,0)"/>
<path d="" fill="#6D00FF" transform="translate(0,0)"/>
<path d="" fill="#61FFF4" transform="translate(0,0)"/>
<path d="" fill="#61FFF4" transform="translate(0,0)"/>
<path d="" fill="#6D00FF" transform="translate(0,0)"/>
<path d="" fill="#6D00FF" transform="translate(0,0)"/>
<path d="" fill="#61FFF4" transform="translate(0,0)"/>
<path d="" fill="#61FFF4" transform="translate(0,0)"/>
<path d="" fill="#317BF8" transform="translate(0,0)"/>
<path d="" fill="#317BF8" transform="translate(0,0)"/>
<path d="" fill="#4EDCDC" transform="translate(0,0)"/>
<path d="" fill="#554B80" transform="translate(0,0)"/>
<path d="" fill="#554B80" transform="translate(0,0)"/>
<path d="" fill="#554B80" transform="translate(0,0)"/>
<path d="" fill="#554B80" transform="translate(0,0)"/>
<path d="" fill="#554B80" transform="translate(0,0)"/>
<path d="" fill="#61FFF4" transform="translate(0,0)"/>
<path d="" fill="#61FFF4" transform="translate(0,0)"/>
<path d="" fill="#554B80" transform="translate(0,0)"/>
<path d="" fill="#554B80" transform="translate(0,0)"/>
<path d="" fill="#61FFF4" transform="translate(0,0)"/>
<path d="" fill="#61FFF4" transform="translate(0,0)"/>
<path d="" fill="#61FFF4" transform="translate(0,0)"/>
<path d="" fill="#61FFF4" transform="translate(0,0)"/>
</svg>
