<svg width="512" height="512" viewBox="0 0 512 512" xmlns="http://www.w3.org/2000/svg" role="img" aria-label="CampusWay logo">
  <defs>
    <linearGradient id="ringGrad" x1="90" y1="70" x2="430" y2="450" gradientUnits="userSpaceOnUse">
      <stop offset="0" stop-color="#46c4d6"/>
      <stop offset="0.52" stop-color="#3e79b8"/>
      <stop offset="1" stop-color="#7d2fb3"/>
    </linearGradient>
    <linearGradient id="arrowGrad" x1="170" y1="330" x2="362" y2="176" gradientUnits="userSpaceOnUse">
      <stop offset="0" stop-color="#2ac8d2"/>
      <stop offset="0.62" stop-color="#5a52bf"/>
      <stop offset="1" stop-color="#38d8df"/>
    </linearGradient>
    <linearGradient id="innerArrowGrad" x1="186" y1="337" x2="320" y2="214" gradientUnits="userSpaceOnUse">
      <stop offset="0" stop-color="#ffffff" stop-opacity="0.95"/>
      <stop offset="1" stop-color="#ffffff" stop-opacity="0.72"/>
    </linearGradient>
    <linearGradient id="capGrad" x1="184" y1="170" x2="331" y2="229" gradientUnits="userSpaceOnUse">
      <stop offset="0" stop-color="#1d2e4b"/>
      <stop offset="1" stop-color="#102340"/>
    </linearGradient>
  </defs>

  <circle cx="256" cy="256" r="224" fill="#ffffff"/>
  <circle cx="256" cy="256" r="223" fill="none" stroke="url(#ringGrad)" stroke-width="18"/>

  <path d="M149 349C178 325 205 327 230 355L330 253L359 281L258 382C229 412 197 415 160 397L129 383L149 349Z" fill="url(#arrowGrad)"/>
  <path d="M189 336C206 325 222 327 236 342L309 267L324 283L250 357C234 374 216 376 197 364L176 351L189 336Z" fill="url(#innerArrowGrad)"/>
  <path d="M323 274L389 208L420 239L354 307L323 274Z" fill="url(#arrowGrad)"/>

  <path d="M172 164L254 132L335 165L254 196L172 164Z" fill="url(#capGrad)"/>
  <path d="M204 184L254 165L304 184L254 203L204 184Z" fill="#0d1f3c" opacity="0.85"/>
  <path d="M185 173V219" stroke="#0d1f3c" stroke-width="6" stroke-linecap="round"/>
  <circle cx="185" cy="226" r="8" fill="#0d1f3c"/>
</svg>